<svg width="210" height="70" viewBox="0 0 210 70" fill="none" xmlns="http://www.w3.org/2000/svg">
<path d="M148.01 35.5072C148.484 36.1024 148.212 36.8652 148.568 37.7622C151.971 34.5473 155.857 33.0509 160.485 34.3503C162.87 35.0167 164.664 36.488 166.03 38.4874C169.073 42.9431 168.486 49.7335 164.773 53.4892C160.82 57.488 155.279 57.4838 148.698 53.3173C148.698 56.9808 148.723 60.4766 148.677 63.9724C148.668 64.685 149.046 65.4898 148.371 66.1185C147.918 62.0611 148.312 58.0036 148.161 54.4323C148.161 57.3874 148.124 60.8287 148.182 64.2658C148.203 65.4479 148.002 66.1269 146.61 65.9886C145.474 65.8754 144.175 66.3113 144.179 64.3706C144.2 55.1197 144.158 45.8646 144.213 36.6137C144.225 34.5892 145.906 34.1281 148.019 35.4988L148.01 35.5072Z" fill="#414042"/>
<path d="M132.51 56.1718C128.503 57.3329 125.12 56.0754 121.876 53.0742C121.876 56.9766 121.901 60.4808 121.855 63.985C121.846 64.6934 122.224 65.4982 121.549 66.1269C121.096 62.1826 121.486 58.2299 121.339 54.491C121.339 57.5425 121.364 60.8036 121.318 64.0647C121.31 64.7353 121.742 65.9048 120.618 65.8922C119.549 65.8796 118.04 66.8353 117.407 65.0245C117.315 55.8407 117.386 46.6527 117.382 37.4647C117.382 36.6054 117.039 35.5323 118.057 35.0126C119.164 34.4509 120.228 34.8156 121.192 35.5156C121.356 36.182 121.519 36.8485 121.712 37.6407C126.323 33.8599 131.365 32.1707 136.659 35.876C140.839 38.8018 141.878 43.2826 140.818 48.1114C139.887 52.3533 137.301 55.2204 132.862 56.109C132.757 56.0251 132.644 55.9748 132.518 55.9497C132.267 55.9036 132.007 55.9706 131.759 55.8868C131.994 56.0335 132.338 55.8742 132.514 56.1718H132.51Z" fill="#414042"/>
<path d="M72.5611 38.1311C73.4498 37.9635 73.9779 37.3054 74.5438 36.6934C76.8575 34.191 81.0324 33.1305 84.1007 34.4928C86.3516 35.4946 88.0324 37.188 88.0534 39.8497C88.0995 45.0012 88.024 50.1527 87.9989 55.3042C86.6575 55.9832 85.2785 55.8072 83.8995 55.4761C83.3084 51.9006 83.824 48.2958 83.6186 44.712C83.5599 43.6725 83.9749 42.5868 83.3713 41.5892C82.8264 39.8539 82.2857 38.1563 79.9635 38.1228C77.5282 38.085 75.5372 38.785 74.2084 40.9856C73.2779 42.524 72.8126 44.1545 72.821 45.9401C72.8336 48.5892 72.6827 51.2467 72.8713 53.879C73.0096 55.8198 72.2929 56.3773 70.524 56.088C70.1174 56.021 69.6857 56.0461 69.2707 56.088C68.336 56.1802 67.8959 55.912 67.9001 54.8431C67.9336 42.2305 67.9252 29.6222 67.9252 17.0096C67.9252 16.712 68.0006 16.4731 68.3402 16.4144C68.7258 17.1395 68.533 17.9192 68.533 18.6695C68.5456 29.8904 68.5456 41.1072 68.5414 52.3281C68.5414 53.3006 68.4659 54.2814 68.9563 55.1785C69.3 55.6521 69.845 55.4216 70.2809 55.5557C70.4947 55.6228 70.545 55.627 70.4905 55.4006C69.8659 55.5012 69.2036 55.7276 68.8851 54.8767C68.5288 54.3108 68.5497 53.6862 68.5497 53.0575C68.5497 41.2413 68.5497 29.4293 68.5497 17.6132C68.5497 17.2024 68.4827 16.7749 68.751 16.406C70.0126 16.4773 71.3498 15.8359 72.5234 16.7874C72.0623 18.2126 72.3348 19.6755 72.3264 21.1132C72.2845 26.1138 72.3013 31.1144 72.3264 36.115C72.3264 36.7856 72.1 37.5066 72.5653 38.1311H72.5611Z" fill="#414042"/>
<path d="M100.616 49C94.9235 48.2539 91.2139 44.1503 90.8744 38.7809C90.4301 31.7348 95.5061 27.5557 100.146 26.7887C108.299 25.439 114.641 30.5066 114.402 38.324C114.226 44.1294 109.586 48.8869 103.956 49.0378C102.846 48.6605 101.731 48.7108 100.616 49Z" fill="white"/>
<path d="M177.284 56.1173C169.639 54.5203 166.365 45.8395 170.771 39.288C172.862 36.1778 175.641 34.4509 179.221 33.9898C184.913 33.2563 189.147 36.3161 191.096 41.6102C191.523 42.7754 191.326 43.2658 190.086 43.6808C185.529 45.2024 181.015 46.8539 176.488 48.4593C175.914 48.6646 175.352 48.9036 174.778 49.1257C176.375 52.5922 181.409 53.3634 184.305 51.4982C186.653 49.9892 186.707 52.2108 187.432 53.2125C188.593 54.8221 186.791 54.8054 186.091 55.2497C185.349 55.7191 184.49 56.0964 183.551 56.088C182.977 55.7694 182.344 56.0042 181.669 55.8742C182.109 56.0628 182.604 55.7443 182.876 56.2137C181.12 56.767 179.368 56.7545 177.616 56.1718C177.796 55.8658 178.148 56.0209 178.387 55.8826C178.026 55.9916 177.607 55.8155 177.28 56.109L177.284 56.1173Z" fill="#414042"/>
<path d="M24.7683 56.1048C19.9983 55.0108 16.8587 51.5569 16.4144 46.9251C16.712 45.8144 16.7037 44.7036 16.4228 43.5928C16.5695 38.3659 22.1695 33.0383 29.8947 33.9898C36.1779 34.7653 40.7132 40.5204 39.6695 46.5479C38.9444 50.7437 37.0036 54.1305 32.703 55.6521C30.0749 56.0838 27.4258 56.2138 24.7641 56.1048H24.7683Z" fill="#414042"/>
<path d="M6.80302 47.2395C6.80302 45.0096 6.70242 42.7713 6.83655 40.5497C6.93296 38.9904 6.47607 38.324 4.88745 38.6132C3.38266 38.8857 2.87547 38.3659 2.87966 36.7437C2.88386 35.1216 3.39104 34.5851 4.90002 34.8575C6.48865 35.1467 6.94553 34.4886 6.83655 32.9294C6.69404 30.9174 6.85751 28.8886 6.78206 26.8683C6.74014 25.7785 7.09643 25.4641 8.19463 25.4348C11.7366 25.3425 11.7366 25.2922 11.7366 28.9012C11.7366 30.3641 11.833 31.8354 11.7072 33.2898C11.5898 34.6521 12.1473 35.0126 13.3713 34.8701C13.9916 34.7988 14.6246 34.8575 15.2533 34.8575C17.5042 34.8575 18.0952 35.6707 17.5503 37.8922C17.4246 38.3952 17.2066 38.6048 16.733 38.6174C16.5234 38.6216 16.3138 38.6174 16.1042 38.6216C13.1896 38.7417 11.7324 40.2409 11.7324 43.1192C11.7324 46.7449 11.6276 50.3707 11.7785 53.9922C11.8539 55.7988 11.2252 56.3563 9.54853 56.0964C9.07068 56.0252 8.56769 56.0419 8.08565 56.0964C7.06709 56.2012 6.7611 55.7653 6.78206 54.7761C6.83655 52.2695 6.79883 49.7587 6.79883 47.2479L6.80302 47.2395Z" fill="#414042"/>
<path d="M49.4821 16.406C50.7395 16.406 51.997 16.406 53.2587 16.406C53.6401 17.1269 53.4515 17.9066 53.4515 18.6569C53.4641 29.9156 53.4599 41.17 53.4599 52.4287C53.4599 55.9916 53.0282 56.3144 49.4695 55.3964C49.197 54.9479 49.285 54.4491 49.285 53.9671C49.2809 41.9203 49.2809 29.8736 49.285 17.8269C49.285 17.3491 49.1844 16.8461 49.4821 16.406Z" fill="#414042"/>
<path d="M41.518 16.406C42.7754 16.406 44.0329 16.406 45.2946 16.406C45.6425 16.9886 45.4874 17.6299 45.4874 18.2461C45.4958 29.9533 45.4958 41.6563 45.4916 53.3635C45.4916 55.497 43.882 56.4946 41.9539 55.5892C40.9856 55.1365 41.3335 54.273 41.3335 53.573C41.3126 42.3563 41.3084 31.1395 41.3335 19.9227C41.3335 18.7533 41.1114 17.5629 41.5222 16.4102L41.518 16.406Z" fill="#414042"/>
<path d="M198.276 55.7611C197.044 56.4736 195.711 55.9455 194.428 56.0587C193.598 56.1299 193.669 55.4257 193.669 54.8724C193.669 48.5976 193.695 42.3186 193.653 36.0437C193.644 34.979 194.076 34.803 195.015 34.7695C198.037 34.6605 198.037 34.6227 198.23 37.6407C198.259 38.106 198.301 38.5712 198.364 39.376C200.389 37.1377 202.208 35.1551 204.941 34.2916C206.705 33.7341 207.036 34.1281 206.932 35.918C206.818 37.7958 206.538 38.7766 204.278 39.0365C200.95 39.4221 198.649 42.7712 198.515 46.4431C198.402 49.5533 198.833 52.6802 198.268 55.782C197.882 55.3712 198.033 54.8599 198.033 54.3904C198.024 51.6868 198.02 48.9874 198.024 46.2838C198.016 48.8575 197.936 51.4353 198.045 54.0048C198.108 55.4593 197.383 55.5892 196.264 55.5221C195.241 55.4635 194.164 55.7778 194.223 54.0341C194.336 50.8024 194.256 47.5665 194.248 44.3305C194.244 47.6461 194.269 50.9659 194.227 54.2814C194.214 55.3503 194.713 55.5431 195.631 55.5431C196.511 55.5431 197.433 55.279 198.28 55.7611H198.276Z" fill="#414042"/>
<path d="M41.518 16.406C41.518 28.679 41.5264 40.9563 41.5097 53.2293C41.5097 54.4449 41.4803 55.3587 43.1989 55.3587C44.8336 55.3587 45.3408 54.906 45.3324 53.2293C45.2612 41.8617 45.2947 30.494 45.2947 19.1263C45.2947 18.2209 45.2947 17.3114 45.2947 16.406C46.2713 16.7706 45.7767 17.6006 45.7767 18.1916C45.8103 30.1922 45.7348 42.197 45.8606 54.1976C45.8857 56.6287 44.4689 55.979 43.1947 56.0754C41.8073 56.1802 40.9354 56.1425 40.9564 54.1934C41.0653 42.1928 41.0025 30.188 41.036 18.1874C41.036 17.6006 40.5414 16.7665 41.518 16.406Z" fill="#393839"/>
<path d="M121.184 35.5156C121.146 35.9263 121.109 36.3371 121.075 36.7479C120.811 35.4275 120.04 34.9832 118.736 35.2138C117.286 35.4736 117.81 36.5886 117.806 37.3683C117.768 46.5563 117.78 55.7485 117.78 64.9365C117.37 65.2467 117.785 65.8377 117.365 66.1437C116.804 65.9467 117.001 65.4647 117.001 65.0958C116.992 55.3796 116.988 45.6677 117.001 35.9515C117.001 35.3186 116.774 34.2623 117.852 34.5054C118.967 34.7611 120.681 33.2814 121.184 35.5114V35.5156Z" fill="#3D3C3E"/>
<path d="M148.01 35.5072C147.964 35.918 147.922 36.3287 147.876 36.7437C147.624 35.4234 146.849 34.9832 145.545 35.218C144.095 35.482 144.623 36.6012 144.619 37.3808C144.581 46.1707 144.611 54.9563 144.581 63.7461C144.577 65.012 144.653 65.8293 146.317 65.8293C148.085 65.8293 147.964 64.8275 147.956 63.6581C147.935 60.1874 147.947 56.7168 148.362 53.2461V66.1269C146.971 66.3701 145.575 66.3449 144.179 66.1395C143.789 65.4186 143.986 64.6389 143.982 63.8886C143.965 55.0653 143.953 46.2419 143.982 37.4228C143.99 34.3587 143.336 34.6102 146.891 34.5892C147.239 34.5892 147.587 34.5808 147.893 34.7946C147.93 35.0335 147.972 35.2725 148.01 35.5072Z" fill="#363638"/>
<path d="M49.4862 55.3042C51.9983 55.3042 53.2544 54.0551 53.2544 51.5569C53.2544 39.8413 53.2544 28.1215 53.2544 16.406C54.1053 16.7245 53.7239 17.4623 53.7239 17.9946C53.749 30.1084 53.7239 42.2263 53.7742 54.3401C53.7784 55.6856 53.464 56.3269 52.0598 56.0712C51.0832 55.891 50.0101 56.5072 49.1047 55.7191C49.1844 55.5389 49.3143 55.4048 49.482 55.3084L49.4862 55.3042Z" fill="#3C3B3D"/>
<path d="M68.7551 16.4102C68.7551 28.2138 68.7635 40.0216 68.7425 51.8252C68.7425 53.0156 68.8138 54.1725 69.1742 55.3084C69.3167 55.3839 69.367 55.4635 69.3251 55.5473C69.2832 55.6354 69.2371 55.6773 69.191 55.6773C68.1682 54.9438 68.3401 53.8539 68.3401 52.8228C68.3401 40.6881 68.3401 28.5533 68.3401 16.4228C68.4784 16.4228 68.6167 16.4144 68.7551 16.4144V16.4102Z" fill="#3E3D3E"/>
<path d="M49.4861 55.3042C49.3604 55.4425 49.2346 55.5808 49.1089 55.715C49.0544 54.0551 48.958 52.391 48.9538 50.7311C48.9412 39.9461 48.937 29.1611 48.9747 18.376C48.9747 17.7347 48.434 16.8293 49.4777 16.406C49.4777 29.3706 49.4777 42.3395 49.4819 55.3042H49.4861Z" fill="#373738"/>
<path d="M147.893 34.7946C145.42 34.8086 144.183 36.0731 144.183 38.5881C144.183 47.7719 144.183 56.9557 144.179 66.1395C143.45 65.624 143.844 64.8737 143.839 64.2491C143.81 55.3629 143.819 46.4725 143.819 37.5863C143.819 34.0904 144.326 33.7425 147.893 34.7988V34.7946Z" fill="#3C3B3D"/>
<path d="M159.231 25.9964C159.353 26.0509 159.512 26.185 159.583 26.1473C160.304 25.7701 161.017 25.1832 161.813 25.9587C162.555 26.6838 161.826 27.3671 161.692 28.0629C159.499 29.5802 158.07 29.2198 157.135 26.906C157.282 25.6778 157.542 25.5647 159.231 25.9964Z" fill="white"/>
<path d="M72.5611 38.1312C71.9994 37.7497 72.1126 37.1629 72.1126 36.6222C72.1084 30.5234 72.1084 24.4204 72.1126 18.3216C72.1126 17.7809 72.0036 17.194 72.5275 16.7874C72.5401 23.9006 72.5527 31.018 72.5653 38.1312H72.5611Z" fill="#393839"/>
<path d="M189.088 18.8958C190.232 19.0258 190.66 20.0611 190.911 20.9958C191.067 21.5827 190.354 22.1863 189.708 22.1402C188.64 22.0605 187.986 21.2851 187.801 20.2707C187.655 19.4701 188.116 18.9671 189.092 18.8958H189.088Z" fill="white"/>
<path d="M178.714 12.9982C179.548 13.0401 180.575 12.9395 180.516 14.1383C180.474 15.0898 179.703 15.5048 178.76 15.5132C177.817 15.5258 177.041 15.1108 176.966 14.1761C176.869 12.9731 177.884 13.036 178.71 12.9982H178.714Z" fill="white"/>
<path d="M164.697 24.2862C163.444 24.4497 162.538 24.1647 162.605 22.6473C162.869 22.3287 163.125 22.006 163.406 21.6958C163.905 21.1425 164.433 20.7443 165.2 21.3018C166.017 21.8928 165.929 22.5551 165.43 23.276C165.196 23.6197 164.944 23.9509 164.697 24.2862Z" fill="white"/>
<path d="M136.32 7.19278C135.129 7.15925 134.153 7.14667 134.157 5.86823C134.157 4.8832 134.882 4.67362 135.72 4.65685C136.726 4.63589 137.573 4.92931 137.627 6.04847C137.678 7.05446 136.881 7.22212 136.32 7.19278Z" fill="white"/>
<path d="M186.46 16.5066C186.322 17.3575 185.81 17.7012 185.114 17.5838C184.138 17.4162 183.195 17.1102 183.148 15.8317C183.119 15.0479 183.459 14.6539 184.255 14.7042C185.462 14.7797 186.066 15.5593 186.46 16.5108V16.5066Z" fill="white"/>
<path d="M131.223 6.32934C131.047 7.60359 130.082 7.8467 129.102 7.93892C128.255 8.01856 127.785 7.48623 127.861 6.6479C127.982 5.31078 129.181 5.36108 130.062 5.17664C130.816 5.02155 131.122 5.65868 131.223 6.32934Z" fill="white"/>
<path d="M155.358 19.315C156.481 19.6964 157.005 20.5641 157.068 21.6371C157.11 22.3623 156.494 22.7479 155.798 22.6347C154.641 22.4503 154.323 21.5072 154.231 20.5222C154.159 19.7886 154.654 19.4281 155.358 19.315Z" fill="white"/>
<path d="M192.592 24.3617C193.59 24.5503 194.164 25.3719 194.281 26.3443C194.374 27.0988 193.674 27.6772 192.936 27.585C191.892 27.4593 191.498 26.6419 191.519 25.6192C191.532 24.9569 191.565 24.3365 192.588 24.3575L192.592 24.3617Z" fill="white"/>
<path d="M141.857 6.31675C142.67 6.61855 143.747 6.75687 143.726 8.0395C143.714 8.78561 143.102 9.23411 142.49 9.09998C141.61 8.90298 140.49 8.73531 140.432 7.48202C140.39 6.62274 140.981 6.29998 141.861 6.31675H141.857Z" fill="white"/>
<path d="M151.502 14.0629C152.612 14.2767 153.153 15.0563 153.371 16.0539C153.535 16.8126 153.124 17.2527 152.34 17.2443C151.112 17.2318 150.693 16.3348 150.479 15.3581C150.311 14.6078 150.827 14.2264 151.506 14.0587L151.502 14.0629Z" fill="white"/>
<path d="M118.832 11.7239C119.637 11.7239 120.283 12.0006 120.22 12.7509C120.132 13.8239 119.36 14.482 118.333 14.6706C117.642 14.8006 116.984 14.4024 117.038 13.6688C117.118 12.5916 117.944 12.0341 118.832 11.7239Z" fill="white"/>
<path d="M117.361 66.1437C117.382 65.7036 117.298 65.2216 117.776 64.9365C118.283 66.4707 119.541 65.7162 120.425 65.6701C121.393 65.624 121.112 64.6222 121.117 63.985C121.142 60.5437 121.129 57.1024 121.544 53.6653V66.1228C120.153 66.3659 118.757 66.3323 117.361 66.1437Z" fill="#363638"/>
<path d="M174.744 15.6599C174.434 16.6701 173.546 16.8126 172.615 16.7874C171.894 16.7665 171.328 16.3557 171.525 15.597C171.789 14.5617 172.741 14.3102 173.667 14.306C174.409 14.306 174.761 14.8258 174.744 15.6599Z" fill="white"/>
<path d="M170.041 18.4683C169.685 19.3024 169.136 19.9814 168.163 20.1198C167.463 20.2204 166.818 19.8683 166.877 19.1389C166.96 18.0868 167.707 17.3868 168.75 17.2778C169.413 17.2108 169.832 17.7683 170.041 18.4683Z" fill="white"/>
<path d="M147.122 9.65329C148.04 9.91736 148.593 10.6593 148.773 11.6695C148.874 12.2353 148.538 12.6629 147.939 12.5958C146.92 12.4826 145.998 12.118 145.868 10.9233C145.789 10.1814 146.237 9.76646 147.122 9.65329Z" fill="white"/>
<path d="M113.911 16.7287C114.528 16.1671 115.16 16.1251 115.655 16.8293C116.221 17.6467 115.613 18.2503 115.114 18.8036C114.716 19.2479 114.289 19.8641 113.572 19.4198C112.88 18.9922 112.39 18.418 113.111 17.588C113.45 17.3659 113.878 17.2275 113.907 16.7245L113.911 16.7287Z" fill="white"/>
<path d="M83.3713 41.5934C83.4132 41.3209 83.4551 41.0485 83.497 40.776C83.6102 40.776 83.7275 40.776 83.8407 40.7718V55.3042C83.9665 55.6688 83.8617 55.8281 83.4635 55.7191C83.1323 51.0119 83.3251 46.3006 83.3671 41.5934H83.3713Z" fill="#373738"/>
<path d="M24.7683 56.1048C27.3965 55.6354 30.0288 55.2749 32.7072 55.6521C30.1168 56.809 27.4677 56.8845 24.7683 56.1048Z" fill="#3F3E3F"/>
<path d="M110.525 21.3982C111.426 21.4401 111.904 21.7964 111.908 22.5383C111.916 23.4856 111.409 24.1605 110.458 24.2359C109.716 24.2946 109.347 23.7245 109.389 23.0078C109.439 22.1904 109.812 21.5784 110.525 21.4024V21.3982Z" fill="white"/>
<path d="M124.877 8.01439C126.13 9.5611 124.638 9.9635 123.77 10.5671C122.999 11.1036 122.374 10.6048 122.144 9.94254C121.716 8.70182 122.642 8.27847 123.611 7.97248C123.799 7.83835 123.984 7.86769 124.109 8.03954C124.29 8.28266 124.277 8.54254 124.084 8.78146C124.374 8.64314 124.223 8.312 124.374 8.11918C124.508 7.94733 124.675 7.89703 124.872 8.01439H124.877Z" fill="white"/>
<path d="M195.187 30.2257C196.025 30.2257 196.461 30.603 196.524 31.3365C196.578 31.982 196.574 32.6233 195.656 32.682C194.893 32.7281 194.449 32.4557 194.466 31.6341C194.478 31.0221 194.361 30.3305 195.187 30.2257Z" fill="#F8FCFE"/>
<path d="M83.4677 55.7192C83.5934 55.5808 83.7191 55.4425 83.8449 55.3042C85.2323 55.3042 86.6197 55.3042 88.003 55.3042C88.1329 56.0084 87.6844 56.1383 87.1647 56.0587C85.9365 55.8701 84.6329 56.5156 83.4677 55.715V55.7192Z" fill="#393939"/>
<path d="M159.231 25.9964C158.485 26.185 157.462 25.7407 157.135 26.906C156.326 24.9904 157.672 25.1665 158.833 25.1665C158.967 25.4431 159.097 25.724 159.231 26.0006V25.9964Z" fill="white"/>
<path d="M124.877 8.01438C124.353 8.54672 124.29 9.60719 123.2 9.51498C122.802 8.83594 124.663 8.81079 123.615 7.97666C124.051 7.51558 124.474 7.46528 124.877 8.01857V8.01438Z" fill="white"/>
<path d="M100.616 49C101.735 48.4048 102.85 48.3671 103.956 49.0378C102.841 49.0252 101.731 49.0126 100.616 49Z" fill="white"/>
<path d="M16.4228 43.5928C17.0054 44.7036 17.018 45.8144 16.4144 46.9251C16.1587 45.8144 16.1629 44.7036 16.4228 43.5928Z" fill="#373737"/>
<path d="M113.911 16.7287C114.364 16.9677 114.175 17.2946 113.999 17.5796C113.727 18.0114 113.413 17.6635 113.115 17.5922C113.186 17.1269 113.429 16.8168 113.911 16.7245V16.7287Z" fill="white"/>
<path d="M182.876 56.2222C182.419 56.1677 181.966 56.1132 181.166 56.0209C182.21 55.6311 182.893 55.5641 183.551 56.0964C183.325 56.1383 183.102 56.1802 182.876 56.2263V56.2222Z" fill="#393839"/>
<path d="M132.51 56.1718C132.065 56.1299 131.621 56.0838 130.896 56.0126C131.789 55.6227 132.35 55.5976 132.858 56.109L132.698 56.2054L132.514 56.1718H132.51Z" fill="#393839"/>
<path d="M177.284 56.1174C177.792 55.5976 178.353 55.6228 179.213 56.0084C178.513 56.0838 178.064 56.1341 177.616 56.1844L177.435 56.218L177.28 56.1174H177.284Z" fill="#383738"/>
<path d="M148.719 45.4497C148.719 40.7425 151.225 38.127 155.765 38.0934C159.931 38.0641 163.041 41.1407 163.067 45.3114C163.087 48.8659 159.441 53.2545 156.461 53.0282C150.605 52.5881 148.274 49.2222 148.719 45.4455V45.4497Z" fill="#94D8FF"/>
<path d="M148.052 47.2521V43.5928C148.119 43.5928 148.186 43.5928 148.258 43.5928V47.2605C148.19 47.2605 148.123 47.2521 148.052 47.2521Z" fill="#39393A"/>
<path d="M121.905 45.3491C121.905 40.7173 124.474 38.1018 129.03 38.0934C133.163 38.085 136.257 41.1994 136.257 45.3616C136.257 49.4736 132.979 52.7137 128.791 52.7556C124.629 52.7934 121.905 49.8634 121.909 45.3491H121.905Z" fill="#94D8FF"/>
<path d="M121.238 46.9251V43.2659C121.293 43.2659 121.351 43.2617 121.406 43.2575V46.921C121.351 46.921 121.293 46.9209 121.238 46.9251Z" fill="#39393A"/>
<path d="M72.4103 44.5234V54.8683C72.3432 54.8683 72.2762 54.8683 72.2091 54.8683V44.515C72.2762 44.515 72.3432 44.5234 72.4103 44.5234Z" fill="#39383A"/>
<path d="M69.1953 55.6772C69.1827 55.5557 69.1785 55.4299 69.1743 55.3083H70.7923C70.7965 55.4299 70.8049 55.5557 70.809 55.6772H69.1911H69.1953Z" fill="#383739"/>
<path d="M102.523 30.5778C106.501 30.5569 109.397 33.6377 109.397 37.9006C109.397 42.0671 106.4 45.2611 102.493 45.2527C98.8551 45.2443 95.6359 41.8407 95.6107 37.976C95.5856 33.9186 98.6832 30.603 102.523 30.582V30.5778Z" fill="#94D8FF"/>
<path d="M180.428 37.7749C181.568 37.7749 182.654 38.0306 183.585 38.6928C184.553 39.3803 185.768 40.1892 185.643 41.3797C185.546 42.3144 184.092 42.3102 183.224 42.6497C180.437 43.7312 177.59 44.6659 174.811 45.7767C173.65 46.2419 173.554 45.8228 173.537 44.8419C173.479 40.8976 176.538 37.7371 180.424 37.7749H180.428Z" fill="#94D8FF"/>
<path d="M179.464 52.9946C180.415 52.7767 180.939 52.7054 181.522 52.9737C180.927 53.3593 180.374 53.2461 179.464 52.9946Z" fill="#39393B"/>
<path d="M27.392 52.7347C24.0135 52.0976 22.0644 49.9515 21.0668 46.7868C20.6267 45.7641 20.6183 44.7455 21.071 43.7228C22.0016 40.7048 23.8752 38.6299 26.9938 37.7958C27.6016 37.3473 28.2094 37.3599 28.8213 37.7874C33.8387 39.1162 34.8782 42.6623 34.7986 45.6132C34.698 49.3018 32.6902 51.5234 28.4273 52.7347C28.0794 53.0994 27.7357 53.091 27.392 52.7305V52.7347Z" fill="#94D8FF"/>
<path d="M21.0754 43.7228C21.0754 44.7455 21.0754 45.7641 21.0712 46.7868C20.9748 46.9964 20.694 47.3862 20.6814 47.2731C20.564 46.0533 20.4257 44.821 20.7317 43.6012C20.7359 43.5844 20.8575 43.5761 20.9119 43.5928C20.9748 43.6138 21.0209 43.6767 21.0754 43.7228Z" fill="#39393A"/>
<path d="M28.8215 37.7916C28.2137 37.7916 27.606 37.7958 26.994 37.8C26.8892 37.6407 26.1012 37.6239 26.7089 37.385C27.4131 37.1084 28.3814 37.1126 29.0898 37.3808C29.7143 37.6156 28.9263 37.6407 28.8215 37.7916Z" fill="#373638"/>
<path d="M27.3923 52.7347C27.736 52.7347 28.0797 52.7347 28.4276 52.7389C28.5994 52.8521 29.0815 53.0574 28.8426 53.1077C28.0797 53.2712 27.2581 53.1664 26.4324 52.9024C26.7509 52.8437 27.0737 52.7892 27.3923 52.7305V52.7347Z" fill="#373638"/>
<path d="M3.91915 35.2976H6.27065C6.27065 35.3646 6.27065 35.4317 6.27484 35.4988H3.88562C3.89819 35.4317 3.90658 35.3646 3.91915 35.2976Z" fill="#393839"/>
<path d="M198.276 55.7611C195.459 55.6437 194.051 54.1879 194.051 51.3934C194.051 48.6899 194.051 45.9821 194.051 43.2785H194.453C194.453 46.5899 194.474 49.9096 194.441 53.2294C194.428 54.4407 194.403 55.3587 196.121 55.3587C197.823 55.3587 197.84 54.4659 197.819 53.2419C197.777 50.7479 197.806 48.2539 198.263 45.7557C198.263 49.0964 198.263 52.4372 198.263 55.7821L198.276 55.7611Z" fill="#353537"/>
</svg>
