<svg width="40" height="40" viewBox="0 0 40 40" fill="none" xmlns="http://www.w3.org/2000/svg">
<path d="M12 0.5H28C34.3513 0.5 39.5 5.64872 39.5 12V28C39.5 34.3513 34.3513 39.5 28 39.5H12C5.64872 39.5 0.5 34.3513 0.5 28V12C0.5 5.64872 5.64872 0.5 12 0.5Z" stroke="#F3F4F6"/>
<path fill-rule="evenodd" clip-rule="evenodd" d="M26.5813 16.2597C26.6114 16.0151 26.6271 15.766 26.6271 15.5133C26.6271 13.3889 24.9049 11.6667 22.7805 11.6667H16.3519C15.9475 11.6667 15.6023 11.9587 15.5352 12.3574L13.1665 26.4364C13.0815 26.9416 13.4709 27.402 13.9832 27.402H16.3343C16.7386 27.402 17.0904 27.1102 17.1574 26.7114C17.1574 26.7114 17.1613 26.6881 17.1684 26.646H17.1685L16.8408 28.5934C16.766 29.0386 17.1092 29.4444 17.5607 29.4444H19.6175C19.9739 29.4444 20.2782 29.1871 20.3373 28.8356L20.9217 25.3627C21.0224 24.764 21.5407 24.3256 22.1478 24.3256H22.6881C25.6232 24.3256 28.0025 21.9463 28.0025 19.0113C28.0025 17.8755 27.4411 16.8716 26.5813 16.2597Z" fill="#002987"/>
<path fill-rule="evenodd" clip-rule="evenodd" d="M26.5815 16.2597C26.2137 19.2521 23.6633 21.5691 20.5716 21.5691H18.7777C18.3728 21.5691 18.0231 21.8388 17.9134 22.2201L16.8411 28.5933C16.7662 29.0386 17.1094 29.4445 17.5609 29.4445H19.6178C19.9742 29.4445 20.2785 29.1871 20.3376 28.8356L20.9219 25.3627C21.0227 24.764 21.541 24.3256 22.148 24.3256H22.6884C25.6234 24.3256 28.0027 21.9463 28.0027 19.0113V19.0113C28.0027 17.8755 27.4414 16.8716 26.5815 16.2597Z" fill="#0085CC"/>
<path fill-rule="evenodd" clip-rule="evenodd" d="M18.7776 21.5691H20.5716C23.6633 21.5691 26.2137 19.2521 26.5815 16.2598C26.0298 15.8672 25.3557 15.6355 24.627 15.6355H19.9447C19.4116 15.6355 18.9564 16.0205 18.8679 16.5462L17.9133 22.2201C18.023 21.8388 18.3727 21.5691 18.7776 21.5691Z" fill="#00186A"/>
</svg>
