<svg width="13" height="10" viewBox="0 0 13 10" fill="none" xmlns="http://www.w3.org/2000/svg">
<path d="M10.44 4.01871L7.72 1.29871C7.64631 1.23004 7.58721 1.14724 7.54622 1.05524C7.50523 0.963245 7.48318 0.863932 7.48141 0.763228C7.47963 0.662525 7.49816 0.562498 7.53588 0.46911C7.5736 0.375721 7.62974 0.290887 7.70096 0.219668C7.77218 0.14845 7.85701 0.0923042 7.9504 0.0545835C8.04379 0.0168629 8.14382 -0.0016613 8.24452 0.000115395C8.34523 0.00189209 8.44454 0.0239334 8.53654 0.0649252C8.62854 0.105917 8.71134 0.165019 8.78 0.238706L12.78 4.23871C12.9205 4.37933 12.9993 4.56996 12.9993 4.76871C12.9993 4.96746 12.9205 5.15808 12.78 5.29871L8.78 9.29871C8.71134 9.37239 8.62854 9.4315 8.53654 9.47249C8.44454 9.51348 8.34523 9.53552 8.24452 9.5373C8.14382 9.53907 8.04379 9.52055 7.9504 9.48283C7.85701 9.44511 7.77218 9.38896 7.70096 9.31774C7.62974 9.24653 7.5736 9.16169 7.53588 9.0683C7.49816 8.97492 7.47963 8.87489 7.48141 8.77418C7.48318 8.67348 7.50523 8.57417 7.54622 8.48217C7.58721 8.39017 7.64631 8.30737 7.72 8.23871L10.44 5.51871L0.75 5.51871C0.551088 5.51871 0.360322 5.43969 0.21967 5.29904C0.0790175 5.15838 0 4.96762 0 4.76871C0 4.56979 0.0790175 4.37903 0.21967 4.23838C0.360322 4.09772 0.551088 4.01871 0.75 4.01871L10.44 4.01871Z" fill="#9CA3AF"/>
</svg>
