<svg width="34" height="20" viewBox="0 0 34 20" fill="none" xmlns="http://www.w3.org/2000/svg">
<path d="M21.2004 16.2764C21.2004 15.337 21.5736 14.4363 22.2379 13.772C22.9021 13.1078 23.8029 12.7346 24.7422 12.7346C25.6815 12.7346 26.5823 13.1078 27.2465 13.772C27.9108 14.4363 28.284 15.3371 28.284 16.2764C28.284 17.2157 27.9108 18.1165 27.2465 18.7807C26.5823 19.445 25.6815 19.8182 24.7422 19.8182C23.8029 19.8182 22.9021 19.445 22.2379 18.7807C21.5736 18.1165 21.2004 17.2157 21.2004 16.2764ZM23.1926 16.2764C23.1926 16.6874 23.356 17.0814 23.6466 17.372C23.9372 17.6626 24.3312 17.826 24.7422 17.826C25.1532 17.826 25.5472 17.6626 25.8378 17.372C26.1284 17.0814 26.2917 16.6874 26.2917 16.2764C26.2917 15.8654 26.1284 15.4714 25.8378 15.1808C25.5472 14.8902 25.1532 14.7269 24.7422 14.7269C24.3312 14.7269 23.9372 14.8902 23.6466 15.1808C23.3559 15.4714 23.1926 15.8654 23.1926 16.2764Z" fill="#9CA3AF"/>
<path d="M11.169 16.2764C11.169 17.2158 10.7958 18.1165 10.1317 18.7807C9.46733 19.445 8.56653 19.8182 7.62721 19.8182C6.68788 19.8182 5.78708 19.445 5.12294 18.7807C4.45863 18.1165 4.08563 17.2157 4.08563 16.2764C4.08563 15.3371 4.45862 14.4363 5.12294 13.772C5.78708 13.1078 6.68788 12.7346 7.62721 12.7346C8.56653 12.7346 9.46733 13.1078 10.1317 13.772C10.7958 14.4363 11.169 15.3371 11.169 16.2764ZM9.17675 16.2764C9.17675 15.8654 9.01344 15.4714 8.72283 15.1808C8.4324 14.8902 8.03821 14.7269 7.62721 14.7269C7.21637 14.7269 6.82221 14.8902 6.53158 15.1808C6.24098 15.4714 6.07766 15.8654 6.07766 16.2764C6.07766 16.6874 6.24097 17.0814 6.53158 17.372C6.82219 17.6626 7.21634 17.826 7.62721 17.826C8.03822 17.826 8.43239 17.6626 8.72283 17.372C9.01343 17.0814 9.17675 16.6874 9.17675 16.2764Z" fill="#9CA3AF"/>
<path d="M23.6488 3.65941C23.9061 3.64475 24.1641 3.65652 24.419 3.6949C24.6798 3.74361 24.9255 3.85279 25.1362 4.01357C25.3412 4.17236 25.5154 4.36737 25.6497 4.58917L26.0924 5.2267L26.9778 6.4972L27.4205 7.13473H27.4207C27.5764 7.34802 27.7483 7.54936 27.9342 7.73675C28.2934 8.11807 28.7196 8.43004 29.1915 8.65763C29.3995 8.75938 30.4222 9.16226 30.6348 9.24644C31.1291 9.41048 31.5821 9.67917 31.9628 10.0344C32.3588 10.4011 32.6623 10.8561 32.8483 11.3627C33.0061 11.7782 33.0842 12.2196 33.0786 12.6642V15.3558C33.0898 15.5843 33.0121 15.8081 32.8618 15.9806C32.7117 16.1532 32.5006 16.2607 32.2728 16.281H31.7682H28.7445V16.228V16.1394C28.7445 16.0243 28.7445 15.9048 28.7179 15.7896C28.5779 14.6705 27.9701 13.663 27.0452 13.0172C26.1203 12.3715 24.9652 12.1481 23.8663 12.4023C22.7672 12.6565 21.8275 13.3647 21.2802 14.3509C20.9986 14.8461 20.832 15.3984 20.7933 15.9667V16.1615V16.2721H11.6202V16.2323V16.1793C11.6179 16.1454 11.6179 16.1114 11.6202 16.0775C11.6202 15.9359 11.6202 15.7987 11.5759 15.6348C11.5317 15.3417 11.4529 15.0548 11.3412 14.7803C10.9791 13.8687 10.2932 13.1227 9.41523 12.6853C8.53709 12.2478 7.52857 12.1499 6.58271 12.4097C5.63685 12.6697 4.82008 13.2694 4.28884 14.0941C3.99443 14.5459 3.79709 15.0539 3.70888 15.5861C3.70888 15.7145 3.67339 15.8385 3.66452 15.9624C3.65565 16.0864 3.66452 16.0864 3.66452 16.1483V16.2369H1.65905C1.43617 16.262 1.21129 16.2104 1.02171 16.0907C0.815305 15.954 0.675706 15.7373 0.636414 15.493V14.789V1.81789V1.04311C0.647096 0.774595 0.778909 0.525453 0.995099 0.36577C1.21056 0.21621 1.47494 0.15447 1.73437 0.193034H22.0106H22.7854C23.0515 0.200458 23.3003 0.3272 23.4627 0.53832C23.6186 0.749439 23.6854 1.01343 23.6487 1.27323L23.6488 3.65941ZM11.3326 7.79434H18.6372V4.54483H11.3326V7.79434ZM1.85407 7.79434H9.14524V4.54483H1.85361L1.85407 7.79434ZM25.0611 5.28859H25.061C24.871 5.01555 24.6045 4.80445 24.2951 4.68203C23.9869 4.56235 23.655 4.51527 23.3257 4.54479H20.9615V7.7898L25.721 7.78998C25.8852 7.80736 26.0512 7.78926 26.2078 7.73675C26.3576 7.65727 26.4488 7.49901 26.4425 7.32954C26.4412 7.24625 26.4133 7.16549 26.3628 7.09922C26.3185 7.02843 26.2699 6.96198 26.2212 6.89553C25.8271 6.36448 25.442 5.8508 25.0612 5.2886L25.0611 5.28859Z" fill="#9CA3AF"/>
</svg>
