<svg width="20" height="21" viewBox="0 0 20 21" fill="none" xmlns="http://www.w3.org/2000/svg">
<path d="M6.66669 5.49167C6.32502 5.49167 6.04169 5.20834 6.04169 4.86667V2.36667C6.04169 2.025 6.32502 1.74167 6.66669 1.74167C7.00835 1.74167 7.29169 2.025 7.29169 2.36667V4.86667C7.29169 5.20834 7.00835 5.49167 6.66669 5.49167Z" fill="#6B7280"/>
<path d="M13.3333 5.49167C12.9916 5.49167 12.7083 5.20834 12.7083 4.86667V2.36667C12.7083 2.025 12.9916 1.74167 13.3333 1.74167C13.675 1.74167 13.9583 2.025 13.9583 2.36667V4.86667C13.9583 5.20834 13.675 5.49167 13.3333 5.49167Z" fill="#6B7280"/>
<path d="M7.08333 12.7834C6.975 12.7834 6.86667 12.7584 6.76667 12.7167C6.65833 12.675 6.575 12.6167 6.49167 12.5417C6.34167 12.3833 6.25 12.175 6.25 11.95C6.25 11.8417 6.275 11.7333 6.31667 11.6333C6.35833 11.5333 6.41667 11.4417 6.49167 11.3584C6.575 11.2834 6.65833 11.225 6.76667 11.1833C7.06667 11.0583 7.44167 11.125 7.675 11.3584C7.825 11.5167 7.91667 11.7334 7.91667 11.95C7.91667 12 7.90833 12.0584 7.9 12.1167C7.89167 12.1667 7.875 12.2167 7.85 12.2667C7.83333 12.3167 7.80833 12.3667 7.775 12.4167C7.75 12.4583 7.70833 12.5 7.675 12.5417C7.51667 12.6917 7.3 12.7834 7.08333 12.7834Z" fill="#6B7280"/>
<path d="M10 12.7833C9.89169 12.7833 9.78335 12.7583 9.68335 12.7167C9.57502 12.675 9.49169 12.6167 9.40835 12.5417C9.25835 12.3833 9.16669 12.175 9.16669 11.95C9.16669 11.8417 9.19169 11.7333 9.23336 11.6333C9.27502 11.5333 9.33335 11.4417 9.40835 11.3583C9.49169 11.2833 9.57502 11.225 9.68335 11.1833C9.98335 11.05 10.3584 11.125 10.5917 11.3583C10.7417 11.5167 10.8334 11.7333 10.8334 11.95C10.8334 12 10.825 12.0583 10.8167 12.1167C10.8084 12.1667 10.7917 12.2167 10.7667 12.2667C10.75 12.3167 10.725 12.3667 10.6917 12.4167C10.6667 12.4583 10.625 12.5 10.5917 12.5417C10.4334 12.6917 10.2167 12.7833 10 12.7833Z" fill="#6B7280"/>
<path d="M12.9166 12.7833C12.8083 12.7833 12.7 12.7583 12.6 12.7167C12.4916 12.675 12.4083 12.6167 12.325 12.5417C12.2916 12.5 12.2583 12.4583 12.225 12.4167C12.1916 12.3667 12.1666 12.3167 12.15 12.2667C12.125 12.2167 12.1083 12.1667 12.1 12.1167C12.0916 12.0583 12.0833 12 12.0833 11.95C12.0833 11.7333 12.175 11.5167 12.325 11.3583C12.4083 11.2833 12.4916 11.225 12.6 11.1833C12.9083 11.05 13.275 11.125 13.5083 11.3583C13.6583 11.5167 13.75 11.7333 13.75 11.95C13.75 12 13.7416 12.0583 13.7333 12.1167C13.725 12.1667 13.7083 12.2167 13.6833 12.2667C13.6666 12.3167 13.6416 12.3667 13.6083 12.4167C13.5833 12.4583 13.5416 12.5 13.5083 12.5417C13.35 12.6917 13.1333 12.7833 12.9166 12.7833Z" fill="#6B7280"/>
<path d="M7.08333 15.7C6.975 15.7 6.86667 15.675 6.76667 15.6333C6.66667 15.5917 6.575 15.5333 6.49167 15.4583C6.34167 15.3 6.25 15.0833 6.25 14.8667C6.25 14.7583 6.275 14.65 6.31667 14.55C6.35833 14.4417 6.41667 14.35 6.49167 14.275C6.8 13.9667 7.36667 13.9667 7.675 14.275C7.825 14.4333 7.91667 14.65 7.91667 14.8667C7.91667 15.0833 7.825 15.3 7.675 15.4583C7.51667 15.6083 7.3 15.7 7.08333 15.7Z" fill="#6B7280"/>
<path d="M10 15.7C9.78335 15.7 9.56669 15.6083 9.40835 15.4583C9.25835 15.3 9.16669 15.0833 9.16669 14.8667C9.16669 14.7583 9.19169 14.65 9.23336 14.55C9.27502 14.4417 9.33335 14.35 9.40835 14.275C9.71669 13.9667 10.2834 13.9667 10.5917 14.275C10.6667 14.35 10.725 14.4417 10.7667 14.55C10.8084 14.65 10.8334 14.7583 10.8334 14.8667C10.8334 15.0833 10.7417 15.3 10.5917 15.4583C10.4334 15.6083 10.2167 15.7 10 15.7Z" fill="#6B7280"/>
<path d="M12.9166 15.7C12.7 15.7 12.4833 15.6084 12.325 15.4584C12.25 15.3834 12.1916 15.2917 12.15 15.1834C12.1083 15.0834 12.0833 14.975 12.0833 14.8667C12.0833 14.7584 12.1083 14.65 12.15 14.55C12.1916 14.4417 12.25 14.35 12.325 14.275C12.5166 14.0834 12.8083 13.9917 13.075 14.05C13.1333 14.0584 13.1833 14.075 13.2333 14.1C13.2833 14.1167 13.3333 14.1417 13.3833 14.175C13.425 14.2 13.4666 14.2417 13.5083 14.275C13.6583 14.4334 13.75 14.65 13.75 14.8667C13.75 15.0834 13.6583 15.3 13.5083 15.4584C13.35 15.6084 13.1333 15.7 12.9166 15.7Z" fill="#6B7280"/>
<path d="M17.0834 8.89999H2.91669C2.57502 8.89999 2.29169 8.61666 2.29169 8.27499C2.29169 7.93333 2.57502 7.64999 2.91669 7.64999H17.0834C17.425 7.64999 17.7084 7.93333 17.7084 8.27499C17.7084 8.61666 17.425 8.89999 17.0834 8.89999Z" fill="#6B7280"/>
<path d="M13.3333 19.6583H6.66667C3.625 19.6583 1.875 17.9083 1.875 14.8667V7.78334C1.875 4.74167 3.625 2.99167 6.66667 2.99167H13.3333C16.375 2.99167 18.125 4.74167 18.125 7.78334V14.8667C18.125 17.9083 16.375 19.6583 13.3333 19.6583ZM6.66667 4.24167C4.28333 4.24167 3.125 5.4 3.125 7.78334V14.8667C3.125 17.25 4.28333 18.4083 6.66667 18.4083H13.3333C15.7167 18.4083 16.875 17.25 16.875 14.8667V7.78334C16.875 5.4 15.7167 4.24167 13.3333 4.24167H6.66667Z" fill="#6B7280"/>
</svg>
