<svg width="27" height="26" viewBox="0 0 27 26" fill="none" xmlns="http://www.w3.org/2000/svg">
<path d="M18.6118 4.35357V2.71128C18.6118 2.27966 18.2539 1.92172 17.8223 1.92172C17.3906 1.92172 17.0327 2.27966 17.0327 2.71128V4.2904H10.1898V2.71128C10.1898 2.27966 9.83191 1.92172 9.40028 1.92172C8.96866 1.92172 8.61072 2.27966 8.61072 2.71128V4.35357C5.76831 4.61675 4.38921 6.31167 4.17866 8.82774C4.1576 9.13303 4.41026 9.38569 4.70503 9.38569H22.5175C22.8228 9.38569 23.0755 9.12251 23.0439 8.82774C22.8333 6.31167 21.4542 4.61675 18.6118 4.35357Z" fill="#66C7FF"/>
<path d="M22.0332 10.9648H5.1893C4.61029 10.9648 4.13655 11.4385 4.13655 12.0176V18.5025C4.13655 21.6607 5.71567 23.7662 9.40028 23.7662H17.8223C21.5069 23.7662 23.086 21.6607 23.086 18.5025V12.0176C23.086 11.4385 22.6123 10.9648 22.0332 10.9648ZM10.6741 19.7763C10.6215 19.8184 10.5688 19.871 10.5162 19.9026C10.453 19.9447 10.3899 19.9763 10.3267 19.9974C10.2635 20.029 10.2004 20.05 10.1372 20.0605C10.0635 20.0711 10.0003 20.0816 9.92666 20.0816C9.7898 20.0816 9.65294 20.05 9.52661 19.9974C9.38976 19.9447 9.28448 19.871 9.17921 19.7763C8.98971 19.5763 8.87391 19.3026 8.87391 19.0288C8.87391 18.7551 8.98971 18.4814 9.17921 18.2814C9.28448 18.1867 9.38976 18.113 9.52661 18.0603C9.71611 17.9761 9.92666 17.955 10.1372 17.9972C10.2004 18.0077 10.2635 18.0287 10.3267 18.0603C10.3899 18.0814 10.453 18.113 10.5162 18.1551C10.5688 18.1972 10.6215 18.2393 10.6741 18.2814C10.8636 18.4814 10.9794 18.7551 10.9794 19.0288C10.9794 19.3026 10.8636 19.5763 10.6741 19.7763ZM10.6741 16.0917C10.4741 16.2812 10.2004 16.397 9.92666 16.397C9.65294 16.397 9.37923 16.2812 9.17921 16.0917C8.98971 15.8917 8.87391 15.618 8.87391 15.3442C8.87391 15.0705 8.98971 14.7968 9.17921 14.5968C9.47398 14.302 9.93718 14.2073 10.3267 14.3757C10.4636 14.4283 10.5794 14.502 10.6741 14.5968C10.8636 14.7968 10.9794 15.0705 10.9794 15.3442C10.9794 15.618 10.8636 15.8917 10.6741 16.0917ZM14.3587 19.7763C14.1587 19.9658 13.885 20.0816 13.6113 20.0816C13.3376 20.0816 13.0638 19.9658 12.8638 19.7763C12.6743 19.5763 12.5585 19.3026 12.5585 19.0288C12.5585 18.7551 12.6743 18.4814 12.8638 18.2814C13.2533 17.8919 13.9692 17.8919 14.3587 18.2814C14.5482 18.4814 14.664 18.7551 14.664 19.0288C14.664 19.3026 14.5482 19.5763 14.3587 19.7763ZM14.3587 16.0917C14.3061 16.1338 14.2534 16.1759 14.2008 16.218C14.1376 16.2601 14.0745 16.2917 14.0113 16.3128C13.9481 16.3443 13.885 16.3654 13.8218 16.3759C13.7481 16.3865 13.685 16.397 13.6113 16.397C13.3376 16.397 13.0638 16.2812 12.8638 16.0917C12.6743 15.8917 12.5585 15.618 12.5585 15.3442C12.5585 15.0705 12.6743 14.7968 12.8638 14.5968C12.9586 14.502 13.0744 14.4283 13.2112 14.3757C13.6007 14.2073 14.0639 14.302 14.3587 14.5968C14.5482 14.7968 14.664 15.0705 14.664 15.3442C14.664 15.618 14.5482 15.8917 14.3587 16.0917ZM18.0433 19.7763C17.8433 19.9658 17.5696 20.0816 17.2959 20.0816C17.0222 20.0816 16.7485 19.9658 16.5484 19.7763C16.3589 19.5763 16.2431 19.3026 16.2431 19.0288C16.2431 18.7551 16.3589 18.4814 16.5484 18.2814C16.9379 17.8919 17.6538 17.8919 18.0433 18.2814C18.2328 18.4814 18.3486 18.7551 18.3486 19.0288C18.3486 19.3026 18.2328 19.5763 18.0433 19.7763ZM18.0433 16.0917C17.9907 16.1338 17.9381 16.1759 17.8854 16.218C17.8223 16.2601 17.7591 16.2917 17.6959 16.3128C17.6328 16.3443 17.5696 16.3654 17.5064 16.3759C17.4327 16.3865 17.359 16.397 17.2959 16.397C17.0222 16.397 16.7485 16.2812 16.5484 16.0917C16.3589 15.8917 16.2431 15.618 16.2431 15.3442C16.2431 15.0705 16.3589 14.7968 16.5484 14.5968C16.6537 14.502 16.759 14.4283 16.8958 14.3757C17.0853 14.2915 17.2959 14.2704 17.5064 14.3125C17.5696 14.3231 17.6328 14.3441 17.6959 14.3757C17.7591 14.3968 17.8223 14.4283 17.8854 14.4705C17.9381 14.5126 17.9907 14.5547 18.0433 14.5968C18.2328 14.7968 18.3486 15.0705 18.3486 15.3442C18.3486 15.618 18.2328 15.8917 18.0433 16.0917Z" fill="#66C7FF"/>
</svg>
