<svg width="30" height="20" viewBox="0 0 30 20" fill="none" xmlns="http://www.w3.org/2000/svg">
<path fill-rule="evenodd" clip-rule="evenodd" d="M21.5021 0.522886C22.1625 0.632927 23.1166 0.8898 23.557 1.44018C24.0339 3.09129 24.511 4.77919 24.9514 6.46714C25.2082 6.28369 25.4651 6.17364 25.7952 6.17364H27.7766C28.5839 6.17364 29.171 6.83407 29.171 7.60468C29.171 8.37529 28.5472 8.99908 27.7766 8.99908H26.8593C27.1162 9.58625 27.3731 10.4301 27.3731 11.6409C27.4097 14.0626 27.4097 16.4478 27.4097 18.8328C27.4097 19.2731 27.0428 19.64 26.6025 19.64H23.0432C22.6029 19.64 22.236 19.2731 22.236 18.8328V17.9155H6.93506V18.8328C6.93506 19.2731 6.56815 19.64 6.12783 19.64H2.56857C2.12826 19.64 1.76134 19.2731 1.76134 18.8328C1.76134 16.4477 1.79796 14.0629 1.79796 11.6409C1.79796 10.4301 2.05484 9.58608 2.3117 8.99908H1.3944C0.587166 8.99908 0 8.33866 0 7.56805C0 6.79744 0.623796 6.17364 1.3944 6.17364H3.37581C3.7061 6.17364 3.96298 6.28368 4.21968 6.46714C4.65999 4.77924 5.13697 3.09133 5.61408 1.44018C6.0544 0.889813 7.00849 0.632943 7.66891 0.522886C12.2925 -0.174295 16.879 -0.174295 21.5021 0.522886ZM23.3367 6.32037C22.9698 4.88934 22.5661 3.4583 22.1991 2.06394C17.2089 1.22007 11.9619 1.22007 6.97157 2.06394C6.60466 3.45834 6.20096 4.88921 5.83404 6.32037C11.5582 5.69657 17.6124 5.69657 23.3365 6.32037H23.3367ZM5.68752 12.8517C5.54069 11.971 5.39402 11.0904 5.28398 10.2099C6.82503 10.1365 8.21943 10.2833 9.46707 10.7236C10.0174 11.0171 10.4212 11.6043 10.788 12.2281C10.9715 12.6684 10.9715 12.9987 10.5312 13.1087C8.88006 13.1822 7.26559 13.0721 5.68757 12.8519L5.68752 12.8517ZM23.4834 12.8517C23.6302 11.971 23.7769 11.0904 23.8869 10.2099C22.3824 10.1365 20.9514 10.2833 19.7038 10.7236C19.1901 11.0171 18.7497 11.6043 18.3828 12.2281C18.1994 12.6684 18.1994 12.9987 18.6763 13.1087C20.2908 13.1822 21.9053 13.0721 23.4833 12.8519L23.4834 12.8517Z" fill="#374151"/>
</svg>
