<svg width="20" height="18" viewBox="0 0 20 18" fill="none" xmlns="http://www.w3.org/2000/svg">
<path d="M16.6289 3.61911C14.9039 1.90446 12.5801 0.927289 10.1482 0.893948C7.71622 0.860608 5.36649 1.77371 3.59518 3.44043C1.82387 5.10715 0.769621 7.39703 0.655067 9.82651C0.540513 12.256 1.37462 14.6349 2.98125 16.4609L2.98828 16.4687C3.00117 16.4824 3.01328 16.4965 3.02734 16.5097C3.05625 16.5426 3.08906 16.5797 3.12773 16.6183C3.27939 16.7795 3.46269 16.9077 3.66616 16.9948C3.86963 17.0819 4.08889 17.126 4.31021 17.1245C4.53154 17.123 4.75016 17.0758 4.9524 16.9858C5.15464 16.8959 5.33614 16.7652 5.48554 16.6019C6.06041 15.9772 6.75864 15.4784 7.5361 15.1373C8.31356 14.7962 9.15333 14.62 10.0023 14.62C10.8513 14.62 11.6911 14.7962 12.4686 15.1373C13.246 15.4784 13.9443 15.9772 14.5191 16.6019C14.6696 16.7661 14.8526 16.8972 15.0564 16.987C15.2602 17.0767 15.4805 17.1232 15.7032 17.1234C15.9259 17.1236 16.1462 17.0776 16.3502 16.9882C16.5542 16.8989 16.7374 16.7681 16.8883 16.6043L17.0137 16.4676L17.0207 16.4597C18.6037 14.6722 19.4448 12.3478 19.3722 9.96118C19.2996 7.57454 18.3188 5.30559 16.6301 3.61755L16.6289 3.61911ZM9.375 3.99997C9.375 3.83421 9.44084 3.67524 9.55805 3.55803C9.67526 3.44082 9.83424 3.37497 10 3.37497C10.1658 3.37497 10.3247 3.44082 10.4419 3.55803C10.5591 3.67524 10.625 3.83421 10.625 3.99997V5.24997C10.625 5.41573 10.5591 5.5747 10.4419 5.69191C10.3247 5.80912 10.1658 5.87497 10 5.87497C9.83424 5.87497 9.67526 5.80912 9.55805 5.69191C9.44084 5.5747 9.375 5.41573 9.375 5.24997V3.99997ZM5 10.875H3.75C3.58423 10.875 3.42526 10.8091 3.30805 10.6919C3.19084 10.5747 3.125 10.4157 3.125 10.25C3.125 10.0842 3.19084 9.92524 3.30805 9.80803C3.42526 9.69082 3.58423 9.62497 3.75 9.62497H5C5.16576 9.62497 5.32473 9.69082 5.44194 9.80803C5.55915 9.92524 5.625 10.0842 5.625 10.25C5.625 10.4157 5.55915 10.5747 5.44194 10.6919C5.32473 10.8091 5.16576 10.875 5 10.875ZM6.90625 7.15622C6.78905 7.27334 6.63014 7.33914 6.46445 7.33914C6.29876 7.33914 6.13985 7.27334 6.02265 7.15622L5.13867 6.27263C5.02144 6.15541 4.95559 5.99642 4.95559 5.83064C4.95559 5.66486 5.02144 5.50587 5.13867 5.38864C5.25589 5.27142 5.41488 5.20557 5.58066 5.20557C5.74644 5.20557 5.90543 5.27142 6.02265 5.38864L6.90625 6.27263C7.02337 6.38983 7.08916 6.54874 7.08916 6.71443C7.08916 6.88012 7.02337 7.03902 6.90625 7.15622ZM12.7383 8.05857L10.8828 11.0078C10.8069 11.113 10.7146 11.2053 10.6094 11.2812C10.3554 11.4584 10.0418 11.5283 9.73661 11.4757C9.43144 11.4231 9.15932 11.2522 8.97933 11.0002C8.79933 10.7482 8.72598 10.4354 8.77519 10.1297C8.8244 9.82394 8.99221 9.54995 9.24218 9.36716L12.1914 7.51169C12.2584 7.46496 12.3382 7.43991 12.4199 7.43991C12.5016 7.43991 12.5814 7.46496 12.6484 7.51169C12.7326 7.57248 12.7893 7.66412 12.8062 7.76659C12.823 7.86907 12.7986 7.97404 12.7383 8.05857ZM13.9773 7.15622C13.8592 7.26849 13.7018 7.33015 13.5389 7.32806C13.3759 7.32597 13.2202 7.2603 13.1049 7.14505C12.9897 7.0298 12.924 6.87409 12.9219 6.71111C12.9198 6.54814 12.9815 6.39079 13.0937 6.27263L13.9773 5.38864C14.0946 5.27142 14.2536 5.20557 14.4193 5.20557C14.5851 5.20557 14.7441 5.27142 14.8613 5.38864C14.9785 5.50587 15.0444 5.66486 15.0444 5.83064C15.0444 5.99642 14.9785 6.15541 14.8613 6.27263L13.9773 7.15622ZM16.25 10.875H15C14.8342 10.875 14.6753 10.8091 14.5581 10.6919C14.4408 10.5747 14.375 10.4157 14.375 10.25C14.375 10.0842 14.4408 9.92524 14.5581 9.80803C14.6753 9.69082 14.8342 9.62497 15 9.62497H16.25C16.4158 9.62497 16.5747 9.69082 16.6919 9.80803C16.8091 9.92524 16.875 10.0842 16.875 10.25C16.875 10.4157 16.8091 10.5747 16.6919 10.6919C16.5747 10.8091 16.4158 10.875 16.25 10.875Z" fill="#94D8FF"/>
</svg>
