<svg width="31" height="31" viewBox="0 0 31 31" fill="none" xmlns="http://www.w3.org/2000/svg">
<path d="M3 12.8221L4.854 14L4.362 11.78L6 10.2863L3.843 10.0937L3 8L2.157 10.0937L0 10.2863L1.638 11.78L1.146 14L3 12.8221Z" fill="#F2C94C"/>
<path d="M3 20.8221L4.854 22L4.362 19.78L6 18.2863L3.843 18.0937L3 16L2.157 18.0937L0 18.2863L1.638 19.78L1.146 22L3 20.8221Z" fill="#F2C94C"/>
<path d="M8 27.8221L9.854 29L9.362 26.78L11 25.2863L8.843 25.0937L8 23L7.157 25.0937L5 25.2863L6.638 26.78L6.146 29L8 27.8221Z" fill="#F2C94C"/>
<path d="M17 29.8221L18.854 31L18.362 28.78L20 27.2863L17.843 27.0937L17 25L16.157 27.0937L14 27.2863L15.638 28.78L15.146 31L17 29.8221Z" fill="#F2C94C"/>
<path d="M24 26.8221L25.854 28L25.362 25.78L27 24.2863L24.843 24.0937L24 22L23.157 24.0937L21 24.2863L22.638 25.78L22.146 28L24 26.8221Z" fill="#F2C94C"/>
<path d="M28 18.8221L29.854 20L29.362 17.78L31 16.2863L28.843 16.0937L28 14L27.157 16.0937L25 16.2863L26.638 17.78L26.146 20L28 18.8221Z" fill="#F2C94C"/>
<path d="M25 9.82211L26.854 11L26.362 8.78L28 7.28632L25.843 7.09368L25 5L24.157 7.09368L22 7.28632L23.638 8.78L23.146 11L25 9.82211Z" fill="#F2C94C"/>
<path d="M8.20758 6.45729L9.67025 8.09599L9.80208 5.82595L11.7852 4.83537L9.76244 4.06202L9.52212 1.81782L8.14029 3.6024L6.01248 3.19972L7.18125 5.08336L6.10269 7.08516L8.20758 6.45729Z" fill="#F2C94C"/>
<path d="M17 4.82211L18.854 6L18.362 3.78L20 2.28632L17.843 2.09368L17 0L16.157 2.09368L14 2.28632L15.638 3.78L15.146 6L17 4.82211Z" fill="#F2C94C"/>
</svg>
