<svg width="37" height="20" viewBox="0 0 37 20" fill="none" xmlns="http://www.w3.org/2000/svg">
<path fill-rule="evenodd" clip-rule="evenodd" d="M26.0127 4.20094L24.2266 1.07292C23.9119 0.521897 23.3267 0.181824 22.6925 0.181824H20.8827C20.5576 0.181824 20.2937 0.44588 20.2937 0.77129C20.2937 1.0967 20.5576 1.36076 20.8827 1.36076H22.6925C22.904 1.36076 23.0992 1.47413 23.2038 1.65733L30.7106 14.8059C30.8722 15.0883 31.2321 15.187 31.5142 15.0253C31.7964 14.8641 31.8944 14.5034 31.7334 14.2212L27.4139 6.65505C27.6828 6.76842 27.9774 6.85352 28.2907 6.90441C28.4599 6.93212 28.6325 6.88406 28.7632 6.77267C28.894 6.66155 28.9692 6.49843 28.9692 6.32739C28.9743 5.49702 28.9743 4.04725 28.9743 3.21688C28.9743 3.04386 28.8983 2.8796 28.7666 2.76764C28.6347 2.65569 28.4607 2.60706 28.2898 2.63505C27.1856 2.81854 26.3068 3.42438 26.0125 4.19989L26.0127 4.20094Z" fill="#9CA3AF"/>
<path fill-rule="evenodd" clip-rule="evenodd" d="M23.7377 3.78186L25.682 7.18636L25.6727 7.22594C25.4911 8.00651 24.7956 8.55896 23.9948 8.55896H16.0649C15.4064 8.55896 14.8729 8.02462 14.8729 7.36562C14.8729 6.16693 15.7367 5.14317 16.9172 4.94218L23.7375 3.78192L23.7377 3.78186Z" fill="#9CA3AF"/>
<path fill-rule="evenodd" clip-rule="evenodd" d="M27.6759 10.6778C26.6654 11.6439 26.0355 13.0057 26.0355 14.5132C26.0355 17.4413 28.4106 19.8181 31.3359 19.8181C34.2612 19.8181 36.6362 17.4413 36.6362 14.5132C36.6362 11.5854 34.2612 9.20825 31.3359 9.20825C30.7644 9.20825 30.2136 9.29929 29.6978 9.46694L30.7619 11.3309C30.9486 11.297 31.1401 11.28 31.3359 11.28C33.1189 11.28 34.5669 12.7287 34.5669 14.5132C34.5669 16.2983 33.1192 17.747 31.3359 17.747C29.5529 17.747 28.1049 16.2983 28.1049 14.5132C28.1049 13.7838 28.347 13.11 28.7555 12.5687L27.6759 10.6778Z" fill="#9CA3AF"/>
<path fill-rule="evenodd" clip-rule="evenodd" d="M10.6251 8.77365L12.1397 12.2548C12.5267 13.1445 13.3591 13.713 14.2744 13.713H16.5779L16.2118 15.0735C16.1164 15.4277 16.1915 15.806 16.4138 16.0972C16.6367 16.3884 16.9824 16.5595 17.3491 16.5595H20.7936C21.8529 16.5595 22.7817 15.8516 23.0639 14.8301L24.6613 9.05047C24.4492 9.11436 24.2255 9.14829 23.9955 9.14829H16.0656C15.6543 9.14829 15.2752 9.00863 14.9738 8.77397H10.6254L10.6251 8.77365Z" fill="#9CA3AF"/>
<path fill-rule="evenodd" clip-rule="evenodd" d="M14.4974 6.24414C14.3596 6.59273 14.2842 6.9713 14.2842 7.36568C14.2842 7.66112 14.3559 7.93932 14.4828 8.18469H4.53892C4.21379 8.18469 3.95024 7.92063 3.95024 7.59522V7.42304C3.95024 6.77194 4.47762 6.2444 5.12786 6.2444H14.4968L14.4974 6.24414Z" fill="#9CA3AF"/>
<path fill-rule="evenodd" clip-rule="evenodd" d="M7.74558 8.77365H10.3364L6.16032 14.6477C5.9979 14.8758 5.75158 15.0299 5.4756 15.0769C5.19962 15.1232 4.91658 15.0579 4.68832 14.8959V14.8956C4.46009 14.7331 4.30584 14.4871 4.25924 14.2103C4.21291 13.9341 4.27816 13.6508 4.4403 13.4227L7.74558 8.77365Z" fill="#9CA3AF"/>
<path fill-rule="evenodd" clip-rule="evenodd" d="M6.0173 10.1878C5.6803 10.1138 5.3306 10.075 4.97186 10.075C2.28578 10.075 0.10451 12.2579 0.10451 14.9466C0.10451 17.6355 2.28578 19.8182 4.97186 19.8182C7.65846 19.8182 9.83972 17.6353 9.83972 14.9466C9.83972 13.8146 9.45301 12.7725 8.80477 11.9447L7.62121 13.609C7.8246 14.0113 7.939 14.4657 7.939 14.9465C7.939 16.5857 6.60966 17.9162 4.9719 17.9162C3.33465 17.9162 2.00538 16.5857 2.00538 14.9465C2.00538 13.3862 3.21012 12.1055 4.73861 11.9862L6.0173 10.1878Z" fill="#9CA3AF"/>
</svg>
