<svg width="14" height="18" viewBox="0 0 14 18" fill="none" xmlns="http://www.w3.org/2000/svg">
<path d="M7.00005 0.607147C8.8471 0.607147 10.6185 1.34088 11.9245 2.64694C13.2306 3.953 13.9643 5.72439 13.9643 7.57143C13.9643 10.5143 11.8965 13.7214 7.81434 17.2271C7.58735 17.4221 7.29795 17.5292 6.99872 17.529C6.69948 17.5287 6.41027 17.4211 6.18362 17.2257L5.91362 16.9914C2.0122 13.5771 0.0357666 10.4486 0.0357666 7.57143C0.0357666 5.72439 0.769502 3.953 2.07556 2.64694C3.38162 1.34088 5.15301 0.607147 7.00005 0.607147ZM7.00005 4.89286C6.28965 4.89286 5.60835 5.17507 5.10602 5.6774C4.60369 6.17973 4.32148 6.86103 4.32148 7.57143C4.32148 8.28183 4.60369 8.96314 5.10602 9.46547C5.60835 9.9678 6.28965 10.25 7.00005 10.25C7.71045 10.25 8.39176 9.9678 8.89409 9.46547C9.39642 8.96314 9.67862 8.28183 9.67862 7.57143C9.67862 6.86103 9.39642 6.17973 8.89409 5.6774C8.39176 5.17507 7.71045 4.89286 7.00005 4.89286Z" fill="#94D8FF"/>
</svg>
