<svg width="20" height="21" viewBox="0 0 20 21" fill="none" xmlns="http://www.w3.org/2000/svg">
<path d="M10 0.699997C4.49 0.699997 0 5.19 0 10.7C0 16.21 4.49 20.7 10 20.7C15.51 20.7 20 16.21 20 10.7C20 5.19 15.51 0.699997 10 0.699997ZM14.78 8.4L9.11 14.07C8.97 14.21 8.78 14.29 8.58 14.29C8.38 14.29 8.19 14.21 8.05 14.07L5.22 11.24C4.93 10.95 4.93 10.47 5.22 10.18C5.51 9.89 5.99 9.89 6.28 10.18L8.58 12.48L13.72 7.34C14.01 7.05 14.49 7.05 14.78 7.34C15.07 7.63 15.07 8.1 14.78 8.4Z" fill="#6FCF97"/>
</svg>
