<svg width="18" height="18" viewBox="0 0 18 18" fill="none" xmlns="http://www.w3.org/2000/svg">
<path d="M15.8023 3.9225C14.5948 3.8025 13.3873 3.7125 12.1723 3.645V3.6375L12.0073 2.6625C11.8948 1.9725 11.7298 0.9375 9.97475 0.9375H8.00975C6.26225 0.9375 6.09725 1.9275 5.97725 2.655L5.81975 3.615C5.12225 3.66 4.42475 3.705 3.72725 3.7725L2.19725 3.9225C1.88225 3.9525 1.65725 4.23 1.68725 4.5375C1.71725 4.845 1.98725 5.07 2.30225 5.04L3.83225 4.89C7.76225 4.5 11.7223 4.65 15.6973 5.0475C15.7198 5.0475 15.7348 5.0475 15.7573 5.0475C16.0423 5.0475 16.2898 4.83 16.3198 4.5375C16.3423 4.23 16.1173 3.9525 15.8023 3.9225Z" fill="#EB5757"/>
<path d="M14.4228 6.105C14.2428 5.9175 13.9953 5.8125 13.7403 5.8125H4.2603C4.0053 5.8125 3.7503 5.9175 3.5778 6.105C3.4053 6.2925 3.3078 6.5475 3.3228 6.81L3.7878 14.505C3.8703 15.645 3.9753 17.07 6.5928 17.07H11.4078C14.0253 17.07 14.1303 15.6525 14.2128 14.505L14.6778 6.8175C14.6928 6.5475 14.5953 6.2925 14.4228 6.105ZM10.2453 13.3125H7.7478C7.4403 13.3125 7.1853 13.0575 7.1853 12.75C7.1853 12.4425 7.4403 12.1875 7.7478 12.1875H10.2453C10.5528 12.1875 10.8078 12.4425 10.8078 12.75C10.8078 13.0575 10.5528 13.3125 10.2453 13.3125ZM10.8753 10.3125H7.1253C6.8178 10.3125 6.5628 10.0575 6.5628 9.75C6.5628 9.4425 6.8178 9.1875 7.1253 9.1875H10.8753C11.1828 9.1875 11.4378 9.4425 11.4378 9.75C11.4378 10.0575 11.1828 10.3125 10.8753 10.3125Z" fill="#EB5757"/>
</svg>
