<svg width="20" height="20" viewBox="0 0 20 20" fill="none" xmlns="http://www.w3.org/2000/svg">
<path opacity="0.4" d="M10.0001 18.3333C14.6025 18.3333 18.3334 14.6024 18.3334 10C18.3334 5.39763 14.6025 1.66667 10.0001 1.66667C5.39771 1.66667 1.66675 5.39763 1.66675 10C1.66675 14.6024 5.39771 18.3333 10.0001 18.3333Z" fill="#292D32" fill-opacity="0.32"/>
<path d="M10.8834 10L12.8 8.08334C13.0417 7.84167 13.0417 7.44167 12.8 7.2C12.5584 6.95834 12.1584 6.95834 11.9167 7.2L10 9.11667L8.08338 7.2C7.84172 6.95834 7.44172 6.95834 7.20005 7.2C6.95838 7.44167 6.95838 7.84167 7.20005 8.08334L9.11671 10L7.20005 11.9167C6.95838 12.1583 6.95838 12.5583 7.20005 12.8C7.32505 12.925 7.48338 12.9833 7.64172 12.9833C7.80005 12.9833 7.95838 12.925 8.08338 12.8L10 10.8833L11.9167 12.8C12.0417 12.925 12.2 12.9833 12.3584 12.9833C12.5167 12.9833 12.675 12.925 12.8 12.8C13.0417 12.5583 13.0417 12.1583 12.8 11.9167L10.8834 10Z" fill="#292D32"/>
</svg>
