<svg width="18" height="18" viewBox="0 0 18 18" fill="none" xmlns="http://www.w3.org/2000/svg">
<path d="M6.79434 10.9626C6.65802 10.9626 6.52171 10.9124 6.41409 10.8048C5.82578 10.2165 5.50293 9.43445 5.50293 8.60939C5.50293 6.89469 6.89478 5.50284 8.60948 5.50284C9.43454 5.50284 10.2166 5.82569 10.8049 6.414C10.9053 6.51444 10.9627 6.65075 10.9627 6.79424C10.9627 6.93773 10.9053 7.07405 10.8049 7.17449L7.17458 10.8048C7.06697 10.9124 6.93065 10.9626 6.79434 10.9626ZM8.60948 6.57901C7.49026 6.57901 6.5791 7.49017 6.5791 8.60939C6.5791 8.96811 6.67237 9.31249 6.84456 9.61381L9.61391 6.84447C9.31258 6.67228 8.9682 6.57901 8.60948 6.57901Z" fill="#A4AFAF"/>
<path d="M4.01767 13.28C3.89571 13.28 3.76657 13.237 3.66612 13.1509C2.89845 12.498 2.2097 11.6944 1.6214 10.7618C0.860902 9.57797 0.860902 7.64803 1.6214 6.45707C3.37197 3.71642 5.91891 2.13803 8.60934 2.13803C10.1877 2.13803 11.7446 2.68329 13.1077 3.70924C13.3445 3.8886 13.3947 4.2258 13.2154 4.46256C13.036 4.69932 12.6988 4.74954 12.462 4.57018C11.2854 3.68054 9.95097 3.2142 8.60934 3.2142C6.29198 3.2142 4.07507 4.60605 2.52538 7.0382C1.98729 7.87761 1.98729 9.34121 2.52538 10.1806C3.06347 11.02 3.68047 11.7447 4.36205 12.333C4.58446 12.5267 4.61315 12.8639 4.41944 13.0935C4.319 13.2154 4.16834 13.28 4.01767 13.28Z" fill="#A4AFAF"/>
<path d="M8.60943 15.0808C7.65523 15.0808 6.72254 14.8871 5.82573 14.5068C5.5531 14.392 5.42396 14.0764 5.53875 13.8037C5.65355 13.5311 5.96922 13.402 6.24185 13.5167C7.00235 13.8396 7.79872 14.0046 8.60226 14.0046C10.9196 14.0046 13.1365 12.6128 14.6862 10.1806C15.2243 9.3412 15.2243 7.8776 14.6862 7.03819C14.4638 6.68664 14.2199 6.34944 13.9616 6.03376C13.7751 5.80418 13.8109 5.46698 14.0405 5.27327C14.2701 5.08673 14.6073 5.11543 14.801 5.35219C15.0808 5.69656 15.3534 6.06963 15.5974 6.45706C16.3579 7.64085 16.3579 9.57078 15.5974 10.7617C13.8468 13.5024 11.2999 15.0808 8.60943 15.0808Z" fill="#A4AFAF"/>
<path d="M9.10446 11.6729C8.85336 11.6729 8.62377 11.4935 8.57355 11.2352C8.51616 10.9411 8.70987 10.6613 9.00402 10.6111C9.79322 10.4676 10.4533 9.80752 10.5968 9.01833C10.6542 8.72418 10.934 8.53764 11.2281 8.58786C11.5223 8.64526 11.716 8.92506 11.6586 9.21922C11.429 10.4604 10.4389 11.4433 9.20491 11.6729C9.16904 11.6657 9.14034 11.6729 9.10446 11.6729Z" fill="#A4AFAF"/>
<path d="M1.43485 16.3219C1.29854 16.3219 1.16222 16.2717 1.0546 16.1641C0.846545 15.956 0.846545 15.6117 1.0546 15.4036L6.41394 10.0443C6.622 9.8362 6.96638 9.8362 7.17444 10.0443C7.3825 10.2523 7.3825 10.5967 7.17444 10.8048L1.8151 16.1641C1.70748 16.2717 1.57117 16.3219 1.43485 16.3219Z" fill="#A4AFAF"/>
<path d="M10.4245 7.33233C10.2882 7.33233 10.1518 7.28211 10.0442 7.1745C9.83617 6.96644 9.83617 6.62206 10.0442 6.414L15.4036 1.05467C15.6116 0.846606 15.956 0.846606 16.1641 1.05467C16.3721 1.26273 16.3721 1.6071 16.1641 1.81516L10.8047 7.1745C10.6971 7.28211 10.5608 7.33233 10.4245 7.33233Z" fill="#A4AFAF"/>
</svg>
