<svg width="22" height="22" viewBox="0 0 22 22" fill="none" xmlns="http://www.w3.org/2000/svg">
<path fill-rule="evenodd" clip-rule="evenodd" d="M21.56 11.2501C21.56 10.4701 21.49 9.72006 21.36 9.00006H11V13.2551H16.92C16.665 14.6301 15.89 15.7951 14.725 16.5751V19.3351H18.28C20.36 17.4201 21.56 14.6001 21.56 11.2501Z" fill="#5A96F5"/>
<path fill-rule="evenodd" clip-rule="evenodd" d="M11 22C13.97 22 16.46 21.015 18.28 19.335L14.725 16.575C13.74 17.235 12.48 17.625 11 17.625C8.13495 17.625 5.70995 15.69 4.84495 13.09H1.16995V15.94C2.97995 19.535 6.69995 22 11 22Z" fill="#3ABB5D"/>
<path fill-rule="evenodd" clip-rule="evenodd" d="M4.845 13.0899C4.625 12.4299 4.5 11.7249 4.5 10.9999C4.5 10.2749 4.625 9.56988 4.845 8.90988V6.05988H1.17C0.425 7.54488 0 9.22488 0 10.9999C0 12.7749 0.425 14.4549 1.17 15.9399L4.845 13.0899Z" fill="#FBC41E"/>
<path fill-rule="evenodd" clip-rule="evenodd" d="M11 4.375C12.615 4.375 14.065 4.93 15.205 6.02L18.36 2.865C16.455 1.09 13.965 0 11 0C6.69995 0 2.97995 2.465 1.16995 6.06L4.84495 8.91C5.70995 6.31 8.13495 4.375 11 4.375Z" fill="#EC594C"/>
</svg>
