<svg width="132" height="44" viewBox="0 0 132 44" fill="none" xmlns="http://www.w3.org/2000/svg">
<path d="M93.035 22.3188C93.3327 22.6929 93.1614 23.1724 93.3854 23.7363C95.5248 21.7154 97.9672 20.7748 100.876 21.5916C102.375 22.0105 103.503 22.9353 104.362 24.1921C106.275 26.9928 105.906 31.2611 103.571 33.6218C101.087 36.1353 97.6036 36.1327 93.4671 33.5138C93.4671 35.8165 93.4829 38.0139 93.4539 40.2112C93.4486 40.6591 93.6858 41.165 93.2616 41.5602C92.977 39.0098 93.2247 36.4594 93.1298 34.2146C93.1298 36.0721 93.1061 38.2352 93.143 40.3957C93.1562 41.1387 93.0297 41.5655 92.155 41.4785C91.441 41.4074 90.6242 41.6814 90.6268 40.4615C90.64 34.6467 90.6137 28.8292 90.6479 23.0144C90.6558 21.7418 91.7123 21.452 93.0403 22.3135L93.035 22.3188Z" fill="#414042"/>
<path d="M83.2919 35.308C80.7731 36.0378 78.6468 35.2474 76.6076 33.3609C76.6076 35.8139 76.6234 38.0165 76.5944 40.2191C76.5891 40.6644 76.8262 41.1703 76.4021 41.5655C76.1175 39.0862 76.3625 36.6017 76.2703 34.2515C76.2703 36.1696 76.2861 38.2194 76.2571 40.2692C76.2519 40.6908 76.5232 41.4259 75.8171 41.4179C75.1453 41.41 74.1968 42.0108 73.7989 40.8726C73.741 35.0999 73.7858 29.3245 73.7831 23.5492C73.7831 23.0091 73.5671 22.3346 74.2073 22.0079C74.9029 21.6548 75.5721 21.8841 76.1781 22.3241C76.2809 22.743 76.3836 23.1619 76.5048 23.6599C79.403 21.2833 82.5726 20.2215 85.9003 22.5506C88.5271 24.3897 89.1805 27.2062 88.5139 30.2414C87.929 32.9078 86.3034 34.7099 83.5132 35.2685C83.4473 35.2158 83.3762 35.1842 83.2971 35.1684C83.1391 35.1394 82.9757 35.1815 82.8202 35.1288C82.9678 35.2211 83.1838 35.1209 83.2945 35.308H83.2919Z" fill="#414042"/>
<path d="M45.6098 23.9682C46.1684 23.8628 46.5004 23.4491 46.8561 23.0645C48.3104 21.4915 50.9346 20.8249 52.8632 21.6812C54.2781 22.3109 55.3346 23.3754 55.3478 25.0484C55.3768 28.2865 55.3294 31.5246 55.3135 34.7627C54.4704 35.1895 53.6036 35.0788 52.7368 34.8707C52.3653 32.6233 52.6894 30.3574 52.5603 28.1047C52.5234 27.4513 52.7842 26.7689 52.4048 26.1418C52.0623 25.051 51.7224 23.984 50.2628 23.9629C48.732 23.9392 47.4805 24.3792 46.6453 25.7624C46.0604 26.7294 45.7679 27.7543 45.7732 28.8767C45.7811 30.5418 45.6862 32.2122 45.8048 33.8668C45.8917 35.0867 45.4412 35.4371 44.3294 35.2554C44.0738 35.2132 43.8024 35.229 43.5416 35.2554C42.954 35.3133 42.6774 35.1447 42.68 34.4728C42.7011 26.5449 42.6958 18.6197 42.6958 10.6918C42.6958 10.5047 42.7432 10.3545 42.9567 10.3176C43.1991 10.7734 43.0779 11.2635 43.0779 11.7351C43.0858 18.7883 43.0858 25.8388 43.0831 32.892C43.0831 33.5033 43.0357 34.1198 43.344 34.6836C43.56 34.9813 43.9025 34.8364 44.1765 34.9207C44.3109 34.9629 44.3425 34.9655 44.3083 34.8233C43.9157 34.8865 43.4994 35.0288 43.2992 34.4939C43.0752 34.1382 43.0884 33.7457 43.0884 33.3504C43.0884 25.9231 43.0884 18.4985 43.0884 11.0712C43.0884 10.813 43.0462 10.5442 43.2149 10.3124C44.0079 10.3571 44.8484 9.95403 45.5861 10.5521C45.2963 11.4479 45.4676 12.3674 45.4623 13.2712C45.4359 16.4144 45.4465 19.5576 45.4623 22.7009C45.4623 23.1224 45.32 23.5756 45.6125 23.9682H45.6098Z" fill="#414042"/>
<path d="M63.2442 30.8C59.6662 30.331 57.3345 27.7516 57.1211 24.3765C56.8418 19.9476 60.0324 17.3207 62.9491 16.8386C68.0736 15.9902 72.06 19.1756 71.9098 24.0894C71.7991 27.7385 68.8825 30.7289 65.344 30.8237C64.6458 30.5866 63.945 30.6182 63.2442 30.8Z" fill="#94D8FF"/>
<path d="M111.436 35.2738C106.63 34.2699 104.572 28.8134 107.342 24.6953C108.656 22.7404 110.403 21.6548 112.653 21.365C116.231 20.9039 118.892 22.8273 120.117 26.155C120.386 26.8874 120.262 27.1957 119.482 27.4565C116.618 28.4129 113.781 29.451 110.935 30.4601C110.574 30.5892 110.221 30.7394 109.86 30.879C110.864 33.058 114.028 33.5427 115.849 32.3703C117.325 31.4218 117.359 32.8182 117.815 33.4479C118.544 34.4596 117.411 34.4491 116.971 34.7284C116.505 35.0235 115.965 35.2606 115.375 35.2553C115.014 35.0551 114.616 35.2026 114.192 35.121C114.468 35.2395 114.779 35.0393 114.951 35.3344C113.847 35.6821 112.745 35.6742 111.644 35.308C111.757 35.1157 111.979 35.2132 112.129 35.1262C111.902 35.1947 111.639 35.0841 111.433 35.2685L111.436 35.2738Z" fill="#414042"/>
<path d="M15.5686 35.2659C12.5703 34.5782 10.5969 32.4072 10.3176 29.4958C10.5047 28.7976 10.4994 28.0994 10.3229 27.4012C10.4151 24.1157 13.9351 20.7669 18.7909 21.365C22.7404 21.8524 25.5912 25.4699 24.9351 29.2587C24.4793 31.896 23.2594 34.0249 20.5562 34.9813C18.9042 35.2527 17.2391 35.3344 15.566 35.2659H15.5686Z" fill="#414042"/>
<path d="M4.27618 29.6934C4.27618 28.2918 4.21295 26.8848 4.29726 25.4884C4.35786 24.5083 4.07067 24.0894 3.07211 24.2712C2.12624 24.4424 1.80744 24.1157 1.81007 23.0961C1.81271 22.0764 2.13151 21.7392 3.08002 21.9104C4.07858 22.0922 4.36576 21.6786 4.29726 20.6985C4.20768 19.4338 4.31043 18.1586 4.26301 16.8886C4.23666 16.2036 4.46061 16.006 5.15091 15.9876C7.37726 15.9296 7.37726 15.898 7.37726 18.1665C7.37726 19.086 7.43786 20.0108 7.35882 20.9251C7.28505 21.7813 7.63547 22.0079 8.40481 21.9183C8.79475 21.8736 9.19259 21.9104 9.5878 21.9104C11.0027 21.9104 11.3741 22.4216 11.0316 23.818C10.9526 24.1342 10.8156 24.2659 10.5179 24.2738C10.3861 24.2764 10.2544 24.2738 10.1227 24.2764C8.29063 24.352 7.37463 25.2943 7.37463 27.1035C7.37463 29.3825 7.30876 31.6616 7.40361 33.938C7.45103 35.0736 7.05582 35.424 6.00193 35.2606C5.70157 35.2158 5.3854 35.2264 5.08241 35.2606C4.44217 35.3265 4.24984 35.0525 4.26301 34.4307C4.29726 32.8551 4.27355 31.2769 4.27355 29.6987L4.27618 29.6934Z" fill="#414042"/>
<path d="M31.1029 10.3123C31.8934 10.3123 32.6838 10.3123 33.4768 10.3123C33.7166 10.7655 33.598 11.2556 33.598 11.7272C33.6059 18.8041 33.6033 25.8783 33.6033 32.9552C33.6033 35.1947 33.3319 35.3976 31.095 34.8206C30.9238 34.5387 30.9791 34.2251 30.9791 33.9221C30.9765 26.3499 30.9765 18.7777 30.9791 11.2055C30.9791 10.9051 30.9159 10.589 31.1029 10.3123Z" fill="#414042"/>
<path d="M26.0969 10.3123C26.8873 10.3123 27.6777 10.3123 28.4708 10.3123C28.6895 10.6786 28.592 11.0817 28.592 11.469C28.5973 18.8278 28.5973 26.1839 28.5946 33.5427C28.5946 34.8838 27.5829 35.5109 26.3709 34.9418C25.7623 34.6572 25.981 34.1145 25.981 33.6745C25.9678 26.6239 25.9652 19.5734 25.981 12.5229C25.981 11.7878 25.8413 11.0395 26.0995 10.315L26.0969 10.3123Z" fill="#414042"/>
<path d="M124.631 35.0498C123.856 35.4977 123.018 35.1658 122.212 35.2369C121.69 35.2817 121.735 34.8391 121.735 34.4913C121.735 30.5471 121.751 26.6002 121.725 22.6561C121.719 21.9868 121.991 21.8762 122.581 21.8551C124.48 21.7866 124.48 21.7629 124.602 23.6599C124.62 23.9523 124.646 24.2448 124.686 24.7507C125.959 23.3437 127.102 22.0975 128.82 21.5547C129.929 21.2043 130.137 21.452 130.071 22.577C130 23.7574 129.824 24.3739 128.404 24.5373C126.312 24.7797 124.865 26.8848 124.781 29.1928C124.71 31.1478 124.981 33.1133 124.625 35.063C124.383 34.8048 124.478 34.4834 124.478 34.1883C124.473 32.4889 124.47 30.7921 124.473 29.0927C124.467 30.7104 124.417 32.3308 124.486 33.9459C124.525 34.8601 124.069 34.9418 123.366 34.8997C122.723 34.8628 122.046 35.0604 122.083 33.9643C122.154 31.9329 122.104 29.8989 122.099 27.8649C122.096 29.949 122.112 32.0357 122.086 34.1198C122.078 34.7916 122.391 34.9128 122.968 34.9128C123.521 34.9128 124.101 34.7468 124.633 35.0498H124.631Z" fill="#414042"/>
<path d="M26.097 10.3123C26.097 18.0268 26.1023 25.7439 26.0918 33.4584C26.0918 34.2225 26.0733 34.7969 27.1536 34.7969C28.1811 34.7969 28.4999 34.5123 28.4947 33.4584C28.4499 26.313 28.4709 19.1677 28.4709 12.0223C28.4709 11.4532 28.4709 10.8814 28.4709 10.3123C29.0848 10.5415 28.7739 11.0632 28.7739 11.4347C28.795 18.978 28.7476 26.5238 28.8266 34.0671C28.8424 35.5952 27.9519 35.1868 27.1509 35.2474C26.2788 35.3133 25.7308 35.2896 25.744 34.0644C25.8125 26.5212 25.773 18.9753 25.7941 11.4321C25.7941 11.0632 25.4832 10.5389 26.097 10.3123Z" fill="#393839"/>
<path d="M76.1728 22.3241C76.1491 22.5823 76.1254 22.8405 76.1043 23.0987C75.9383 22.2687 75.4535 21.9894 74.6341 22.1344C73.7225 22.2977 74.0518 22.9985 74.0492 23.4886C74.0255 29.2639 74.0334 35.0419 74.0334 40.8172C73.7752 41.0122 74.036 41.3837 73.7725 41.576C73.4195 41.4522 73.5433 41.1492 73.5433 40.9174C73.5381 34.81 73.5354 28.7054 73.5433 22.5981C73.5433 22.2002 73.4011 21.5363 74.0782 21.6891C74.779 21.8498 75.8566 20.9197 76.1728 22.3214V22.3241Z" fill="#3D3C3E"/>
<path d="M93.0348 22.3188C93.0058 22.577 92.9795 22.8352 92.9505 23.0961C92.7924 22.2661 92.305 21.9895 91.4856 22.137C90.574 22.303 90.906 23.0065 90.9033 23.4965C90.8796 29.0216 90.8981 34.544 90.8796 40.069C90.877 40.8647 90.9244 41.3785 91.9704 41.3785C93.0823 41.3785 93.0059 40.7488 93.0006 40.0137C92.9874 37.8321 92.9953 35.6505 93.2562 33.469V41.5655C92.3814 41.7183 91.5041 41.7025 90.6267 41.5734C90.3817 41.1202 90.5055 40.6302 90.5029 40.1586C90.4923 34.6125 90.4844 29.0664 90.5029 23.5229C90.5081 21.5969 90.0971 21.755 92.3314 21.7418C92.55 21.7418 92.7687 21.7365 92.9611 21.8709C92.9848 22.0211 93.0111 22.1713 93.0348 22.3188Z" fill="#363638"/>
<path d="M31.1056 34.7626C32.6847 34.7626 33.4742 33.9775 33.4742 32.4072C33.4742 25.0431 33.4742 17.6764 33.4742 10.3123C34.0091 10.5126 33.7693 10.9763 33.7693 11.3109C33.7851 18.9253 33.7693 26.5423 33.8009 34.1566C33.8036 35.0024 33.606 35.4055 32.7233 35.2448C32.1094 35.1315 31.4349 35.5188 30.8658 35.0235C30.9159 34.9102 30.9976 34.8259 31.103 34.7653L31.1056 34.7626Z" fill="#3C3B3D"/>
<path d="M43.2175 10.315C43.2175 17.7344 43.2228 25.1564 43.2096 32.5758C43.2096 33.3241 43.2544 34.0513 43.481 34.7653C43.5706 34.8127 43.6022 34.8628 43.5758 34.9155C43.5495 34.9708 43.5205 34.9972 43.4915 34.9972C42.8486 34.5361 42.9567 33.851 42.9567 33.2029C42.9567 25.5754 42.9567 17.9478 42.9567 10.3229C43.0436 10.3229 43.1306 10.3176 43.2175 10.3176V10.315Z" fill="#3E3D3E"/>
<path d="M31.1056 34.7626C31.0265 34.8496 30.9475 34.9365 30.8684 35.0208C30.8342 33.9775 30.7736 32.9315 30.7709 31.8881C30.763 25.109 30.7604 18.3298 30.7841 11.5506C30.7841 11.1475 30.4442 10.5784 31.1003 10.3123C31.1003 18.4615 31.1003 26.6134 31.1029 34.7626H31.1056Z" fill="#373738"/>
<path d="M92.9612 21.8709C91.4067 21.8797 90.6294 22.6745 90.6294 24.2553C90.6294 30.028 90.6294 35.8007 90.6268 41.5734C90.1684 41.2494 90.416 40.7777 90.4134 40.3852C90.395 34.7995 90.4002 29.2113 90.4002 23.6256C90.4002 21.4283 90.719 21.2096 92.9612 21.8736V21.8709Z" fill="#3C3B3D"/>
<path d="M100.088 16.3406C100.164 16.3749 100.265 16.4592 100.309 16.4355C100.763 16.1983 101.21 15.8295 101.711 16.3169C102.177 16.7727 101.719 17.2022 101.635 17.6395C100.257 18.5933 99.3582 18.3667 98.7707 16.9124C98.8629 16.1404 99.0263 16.0692 100.088 16.3406Z" fill="#94D8FF"/>
<path d="M45.6097 23.9682C45.2567 23.7284 45.3278 23.3595 45.3278 23.0197C45.3252 19.1861 45.3252 15.35 45.3278 11.5164C45.3278 11.1765 45.2593 10.8077 45.5887 10.5521C45.5966 15.0232 45.6045 19.497 45.6124 23.9682H45.6097Z" fill="#393839"/>
<path d="M118.855 11.8774C119.575 11.9591 119.843 12.6098 120.001 13.1974C120.099 13.5662 119.651 13.9456 119.245 13.9167C118.573 13.8666 118.162 13.3792 118.047 12.7416C117.954 12.2383 118.244 11.9222 118.858 11.8774H118.855Z" fill="#94D8FF"/>
<path d="M112.334 8.1703C112.859 8.19665 113.504 8.13342 113.467 8.88695C113.441 9.48503 112.956 9.74587 112.363 9.75114C111.77 9.75905 111.283 9.49821 111.236 8.91066C111.175 8.15449 111.813 8.19402 112.332 8.1703H112.334Z" fill="#94D8FF"/>
<path d="M103.524 15.2656C102.736 15.3684 102.167 15.1892 102.209 14.2354C102.375 14.0352 102.536 13.8323 102.712 13.6374C103.026 13.2896 103.358 13.0393 103.84 13.3897C104.354 13.7612 104.298 14.1775 103.985 14.6307C103.837 14.8467 103.679 15.0548 103.524 15.2656Z" fill="#94D8FF"/>
<path d="M85.6867 4.52118C84.9384 4.5001 84.3245 4.49219 84.3272 3.6886C84.3272 3.06944 84.783 2.9377 85.3099 2.92716C85.9422 2.91399 86.4745 3.09842 86.5087 3.8019C86.5403 4.43423 86.0397 4.53962 85.6867 4.52118Z" fill="#94D8FF"/>
<path d="M117.203 10.3756C117.116 10.9104 116.795 11.1265 116.358 11.0527C115.744 10.9473 115.151 10.755 115.122 9.95138C115.104 9.45868 115.317 9.21102 115.818 9.24264C116.576 9.29006 116.956 9.78012 117.203 10.3782V10.3756Z" fill="#94D8FF"/>
<path d="M82.4828 3.97843C82.3722 4.77939 81.7662 4.9322 81.1496 4.99017C80.6174 5.04023 80.3223 4.70562 80.3698 4.17867C80.4462 3.33819 81.1997 3.36981 81.753 3.25388C82.2273 3.1564 82.4196 3.55688 82.4828 3.97843Z" fill="#94D8FF"/>
<path d="M97.6536 12.1409C98.3598 12.3806 98.6891 12.926 98.7286 13.6005C98.755 14.0563 98.3677 14.2987 97.9303 14.2276C97.2031 14.1116 97.0029 13.5188 96.9449 12.8997C96.9001 12.4386 97.211 12.212 97.6536 12.1409Z" fill="#94D8FF"/>
<path d="M121.058 15.3131C121.685 15.4316 122.046 15.948 122.12 16.5593C122.178 17.0335 121.738 17.3971 121.274 17.3392C120.618 17.2601 120.37 16.7463 120.383 16.1035C120.391 15.6872 120.412 15.2972 121.055 15.3104L121.058 15.3131Z" fill="#94D8FF"/>
<path d="M89.1672 3.97052C89.6783 4.16022 90.3555 4.24717 90.3423 5.0534C90.3344 5.52238 89.9497 5.8043 89.5651 5.71998C89.0118 5.59615 88.3083 5.49076 88.2714 4.70298C88.245 4.16286 88.6165 3.95998 89.1698 3.97052H89.1672Z" fill="#94D8FF"/>
<path d="M95.2296 8.83953C95.9278 8.9739 96.2677 9.46396 96.4047 10.091C96.5074 10.5679 96.2492 10.8446 95.7565 10.8393C94.9845 10.8314 94.7211 10.2676 94.5867 9.65366C94.4813 9.18205 94.8054 8.94229 95.2322 8.8369L95.2296 8.83953Z" fill="#94D8FF"/>
<path d="M74.6946 7.36933C75.2005 7.36933 75.6062 7.54322 75.5667 8.01484C75.5114 8.68933 75.0266 9.10298 74.3811 9.22155C73.9463 9.30322 73.5327 9.05292 73.5669 8.59185C73.617 7.91472 74.136 7.5643 74.6946 7.36933Z" fill="#94D8FF"/>
<path d="M73.7697 41.5761C73.7829 41.2994 73.7302 40.9964 74.0306 40.8173C74.3494 41.7816 75.1398 41.3073 75.6957 41.2783C76.3043 41.2494 76.1278 40.6197 76.1304 40.2192C76.1462 38.0561 76.1383 35.893 76.3992 33.7325V41.5629C75.5244 41.7157 74.6471 41.6946 73.7697 41.5761Z" fill="#363638"/>
<path d="M109.839 9.84337C109.644 10.4783 109.086 10.5679 108.501 10.5521C108.048 10.5389 107.692 10.2807 107.816 9.80384C107.982 9.15307 108.58 8.99498 109.162 8.99235C109.629 8.99235 109.85 9.31905 109.839 9.84337Z" fill="#94D8FF"/>
<path d="M106.883 11.6086C106.659 12.1329 106.314 12.5598 105.703 12.6467C105.263 12.7099 104.857 12.4886 104.894 12.0302C104.947 11.3689 105.416 10.9289 106.072 10.8604C106.488 10.8182 106.751 11.1686 106.883 11.6086Z" fill="#94D8FF"/>
<path d="M92.4765 6.06779C93.0535 6.23378 93.4012 6.70012 93.5145 7.33509C93.5778 7.69078 93.367 7.95952 92.9902 7.91737C92.35 7.84623 91.7703 7.61701 91.6887 6.86611C91.6386 6.39976 91.9205 6.13892 92.4765 6.06779Z" fill="#94D8FF"/>
<path d="M71.6015 10.5152C71.9888 10.1621 72.3867 10.1358 72.6976 10.5784C73.0533 11.0922 72.6712 11.4716 72.3577 11.8194C72.1074 12.0987 71.8387 12.486 71.3881 12.2067C70.9534 11.938 70.6451 11.577 71.0983 11.0553C71.3117 10.9157 71.5804 10.8287 71.5989 10.5126L71.6015 10.5152Z" fill="#94D8FF"/>
<path d="M52.4048 26.1444C52.4311 25.9731 52.4575 25.8019 52.4838 25.6306C52.555 25.6306 52.6287 25.6306 52.6999 25.628V34.7626C52.7789 34.9918 52.713 35.0919 52.4627 35.0234C52.2546 32.0646 52.3758 29.1032 52.4021 26.1444H52.4048Z" fill="#373738"/>
<path d="M15.5686 35.2659C17.2206 34.9708 18.8752 34.7442 20.5588 34.9813C18.9305 35.7085 17.2654 35.756 15.5686 35.2659Z" fill="#3F3E3F"/>
<path d="M69.4726 13.4503C70.0391 13.4766 70.3395 13.7006 70.3421 14.1669C70.3474 14.7624 70.0285 15.1866 69.4305 15.234C68.9641 15.2709 68.7323 14.9126 68.7586 14.462C68.7902 13.9482 69.0247 13.5636 69.4726 13.4529V13.4503Z" fill="#94D8FF"/>
<path d="M78.4939 5.03762C79.2817 6.00984 78.3437 6.26277 77.7983 6.64217C77.3135 6.97942 76.9209 6.66588 76.776 6.2496C76.5073 5.46972 77.0896 5.20361 77.6982 5.01127C77.8167 4.92696 77.9327 4.94541 78.0117 5.05343C78.125 5.20624 78.1171 5.3696 77.9959 5.51978C78.1777 5.43283 78.0828 5.22469 78.1777 5.10349C78.262 4.99547 78.3674 4.96385 78.4912 5.03762H78.4939Z" fill="#94D8FF"/>
<path d="M122.689 18.999C123.216 18.999 123.49 19.2362 123.529 19.6972C123.564 20.103 123.561 20.5061 122.984 20.543C122.504 20.572 122.225 20.4007 122.236 19.8843C122.244 19.4996 122.17 19.0649 122.689 18.999Z" fill="#94D8FF"/>
<path d="M52.4653 35.0235C52.5444 34.9365 52.6234 34.8496 52.7025 34.7626C53.5746 34.7626 54.4466 34.7626 55.3161 34.7626C55.3978 35.2053 55.1159 35.287 54.7892 35.2369C54.0172 35.1183 53.1978 35.5241 52.4653 35.0209V35.0235Z" fill="#393939"/>
<path d="M100.088 16.3406C99.6192 16.4592 98.9764 16.1799 98.7708 16.9123C98.2623 15.7083 99.1081 15.8189 99.8379 15.8189C99.9222 15.9928 100.004 16.1693 100.088 16.3432V16.3406Z" fill="#94D8FF"/>
<path d="M78.4939 5.03761C78.1646 5.37222 78.1251 6.03881 77.44 5.98085C77.1897 5.55402 78.3596 5.53821 77.7009 5.0139C77.9749 4.72408 78.241 4.69246 78.4939 5.04025V5.03761Z" fill="#94D8FF"/>
<path d="M63.2442 30.8C63.9477 30.4259 64.6485 30.4022 65.3441 30.8237C64.6432 30.8158 63.945 30.8079 63.2442 30.8Z" fill="#94D8FF"/>
<path d="M10.3228 27.4012C10.6891 28.0994 10.697 28.7976 10.3176 29.4958C10.1569 28.7976 10.1595 28.0994 10.3228 27.4012Z" fill="#373737"/>
<path d="M71.6015 10.5152C71.886 10.6654 71.7675 10.8709 71.6568 11.0501C71.4856 11.3214 71.288 11.1028 71.1009 11.058C71.1457 10.7655 71.2985 10.5705 71.6015 10.5126V10.5152Z" fill="#94D8FF"/>
<path d="M114.951 35.3396C114.663 35.3054 114.379 35.2711 113.876 35.2132C114.532 34.9681 114.961 34.926 115.375 35.2606C115.233 35.2869 115.093 35.3133 114.951 35.3423V35.3396Z" fill="#393839"/>
<path d="M83.2918 35.308C83.0125 35.2817 82.7332 35.2527 82.2774 35.2079C82.8386 34.9629 83.1917 34.9471 83.5105 35.2685L83.4103 35.3291L83.2944 35.308H83.2918Z" fill="#393839"/>
<path d="M111.436 35.2738C111.755 34.9471 112.108 34.9629 112.648 35.2053C112.208 35.2527 111.926 35.2843 111.644 35.3159L111.531 35.337L111.433 35.2738H111.436Z" fill="#383738"/>
<path d="M93.4802 28.5684C93.4802 25.6096 95.0558 23.9655 97.9092 23.9445C100.528 23.926 102.483 25.8599 102.499 28.4815C102.512 30.7157 100.22 33.4743 98.3465 33.332C94.6658 33.0554 93.2009 30.9397 93.4802 28.5658V28.5684Z" fill="white"/>
<path d="M93.0613 29.7013V27.4012C93.1035 27.4012 93.1457 27.4012 93.1904 27.4012V29.7066C93.1483 29.7066 93.1061 29.7013 93.0613 29.7013Z" fill="#39393A"/>
<path d="M76.6258 28.5051C76.6258 25.5938 78.2409 23.9497 81.1048 23.9444C83.7027 23.9391 85.6471 25.8967 85.6471 28.513C85.6471 31.0977 83.5868 33.1343 80.9547 33.1607C78.3384 33.1844 76.6258 31.3427 76.6284 28.5051H76.6258Z" fill="white"/>
<path d="M76.2068 29.4958V27.1957C76.2411 27.1957 76.278 27.193 76.3122 27.1904V29.4932C76.278 29.4932 76.2411 29.4932 76.2068 29.4958Z" fill="#39393A"/>
<path d="M45.515 27.9861V34.4886C45.4729 34.4886 45.4307 34.4886 45.3885 34.4886V27.9808C45.4307 27.9808 45.4729 27.9861 45.515 27.9861Z" fill="#39383A"/>
<path d="M43.4941 34.9971C43.4862 34.9207 43.4835 34.8417 43.4809 34.7653H44.4979C44.5005 34.8417 44.5058 34.9207 44.5084 34.9971H43.4914H43.4941Z" fill="#383739"/>
<path d="M64.4429 19.2204C66.9433 19.2072 68.7639 21.1437 68.7639 23.8232C68.7639 26.4422 66.88 28.4498 64.4245 28.4445C62.1375 28.4393 60.114 26.2999 60.0982 23.8707C60.0824 21.3202 62.0295 19.2362 64.4429 19.223V19.2204Z" fill="white"/>
<path d="M113.412 23.7442C114.129 23.7442 114.811 23.9049 115.396 24.3212C116.005 24.7533 116.769 25.2618 116.69 26.0101C116.629 26.5976 115.715 26.595 115.169 26.8084C113.417 27.4881 111.628 28.0757 109.881 28.7739C109.152 29.0663 109.091 28.8029 109.081 28.1863C109.044 25.7071 110.967 23.7205 113.409 23.7442H113.412Z" fill="white"/>
<path d="M112.806 33.3109C113.404 33.1739 113.733 33.1291 114.1 33.2977C113.725 33.5401 113.378 33.469 112.806 33.3109Z" fill="#39393B"/>
<path d="M17.2178 33.1475C15.0942 32.7471 13.8691 31.3981 13.242 29.4089C12.9654 28.766 12.9601 28.1257 13.2447 27.4829C13.8296 25.5859 15.0073 24.2817 16.9675 23.7574C17.3496 23.4754 17.7316 23.4834 18.1163 23.7521C21.2701 24.5873 21.9235 26.8163 21.8734 28.6711C21.8102 30.9897 20.5481 32.3861 17.8686 33.1475C17.6499 33.3768 17.4339 33.3715 17.2178 33.1449V33.1475Z" fill="white"/>
<path d="M13.2474 27.4829C13.2474 28.1257 13.2474 28.766 13.2448 29.4089C13.1842 29.5406 13.0077 29.7856 12.9998 29.7145C12.926 28.9478 12.839 28.1732 13.0314 27.4065C13.034 27.3959 13.1104 27.3907 13.1447 27.4012C13.1842 27.4144 13.2132 27.4539 13.2474 27.4829Z" fill="#39393A"/>
<path d="M18.1164 23.7547C17.7343 23.7547 17.3523 23.7574 16.9676 23.76C16.9017 23.6599 16.4064 23.6493 16.7885 23.4992C17.2311 23.3253 17.8397 23.3279 18.285 23.4965C18.6776 23.6441 18.1822 23.6599 18.1164 23.7547Z" fill="#373638"/>
<path d="M17.218 33.1475C17.434 33.1475 17.6501 33.1475 17.8688 33.1502C17.9768 33.2213 18.2798 33.3504 18.1296 33.382C17.6501 33.4848 17.1337 33.4189 16.6146 33.2529C16.8149 33.216 17.0177 33.1818 17.218 33.1449V33.1475Z" fill="#373638"/>
<path d="M2.46346 22.187H3.94154C3.94154 22.2292 3.94154 22.2714 3.94418 22.3135H2.44238C2.45029 22.2714 2.45556 22.2292 2.46346 22.187Z" fill="#393839"/>
<path d="M124.631 35.0498C122.86 34.9761 121.975 34.0609 121.975 32.3045C121.975 30.6051 121.975 28.903 121.975 27.2036H122.228C122.228 29.2851 122.241 31.3718 122.22 33.4585C122.212 34.2199 122.196 34.7969 123.276 34.7969C124.346 34.7969 124.357 34.2357 124.343 33.4664C124.317 31.8987 124.336 30.331 124.623 28.7607C124.623 30.8606 124.623 32.9605 124.623 35.063L124.631 35.0498Z" fill="#353537"/>
</svg>
